<svg width="240" height="57" viewBox="0 0 240 57" fill="none" xmlns="http://www.w3.org/2000/svg">
<path d="M46.6563 47.6619C45.4868 49.1311 44.0435 50.4135 42.3266 51.5092C40.6096 52.6048 38.7683 53.5138 36.8025 54.2359C34.8367 54.9581 32.8212 55.4934 30.7558 55.8421C28.6905 56.2156 26.7247 56.4024 24.8585 56.4024C21.2504 56.4024 17.9285 55.7549 14.8927 54.46C11.8569 53.1651 9.23173 51.3847 7.01711 49.1186C4.82737 46.8277 3.11042 44.1383 1.86625 41.0505C0.622084 37.9626 0 34.6383 0 31.0773C0 28.363 0.311042 25.711 0.933126 23.1212C1.55521 20.5066 2.43857 18.0537 3.5832 15.7628C4.75272 13.4469 6.17107 11.3303 7.83826 9.41284C9.50544 7.47051 11.3966 5.8021 13.5117 4.4076C15.6267 3.01311 17.9409 1.92988 20.4541 1.15793C22.9673 0.385976 25.6547 0 28.5163 0C29.5863 0 30.7309 0.0498034 31.9502 0.14941C33.1695 0.224115 34.3764 0.373526 35.5708 0.597641C36.79 0.796854 37.972 1.08322 39.1166 1.45675C40.2613 1.83028 41.3064 2.29096 42.2519 2.83879L41.2068 17.1075C39.8134 16.5845 38.3701 16.2359 36.8771 16.0616C35.409 15.8624 33.9658 15.7628 32.5474 15.7628C30.5568 15.7628 28.6905 16.074 26.9487 16.6966C25.2317 17.2942 23.7263 18.1658 22.4323 19.3113C21.1633 20.4567 20.1555 21.8512 19.409 23.4948C18.6625 25.1383 18.2893 26.9934 18.2893 29.0603C18.2893 30.3552 18.4635 31.6127 18.8118 32.8329C19.1602 34.0282 19.6827 35.099 20.3795 36.0452C21.1011 36.9666 21.9844 37.7136 23.0295 38.2864C24.0995 38.8591 25.3313 39.1455 26.7247 39.1455C27.6703 39.1455 28.6407 39.021 29.6361 38.772C30.6563 38.5229 31.5272 38.0996 32.2488 37.502L32.3981 34.5885L23.4401 34.4391L23.888 23.2333C27.5956 23.1088 31.3033 23.0092 35.0109 22.9345C38.7185 22.8349 42.451 22.7104 46.2084 22.5609L46.6563 47.6619Z" fill="#5E5BDF"/>
<path d="M69.6858 2.68938L65.5801 53.5636L49.8289 54.3853V3.73526L69.6858 2.68938Z" fill="#5E5BDF"/>
<path d="M111.751 1.86763L111.378 17.7051L100.255 18.1533L97.4184 53.5636L81.6672 54.3853L81.7418 18.9751L70.619 19.5727L71.0669 1.94233L111.751 1.86763Z" fill="#5E5BDF"/>
<path d="M129.07 8.14286C129.045 9.31324 128.784 10.6081 128.286 12.0275C127.813 13.4469 127.129 14.8539 126.233 16.2484C125.337 17.618 124.255 18.9253 122.986 20.1704C121.742 21.3906 120.336 22.4115 118.768 23.2333C118.768 23.2084 118.756 22.922 118.731 22.3742C118.706 21.8014 118.669 21.1166 118.619 20.3198C118.594 19.498 118.557 18.6265 118.507 17.7051C118.457 16.7837 118.42 15.962 118.395 15.2398C116.852 14.6671 115.633 13.7084 114.737 12.3637C113.841 11.019 113.393 9.53735 113.393 7.91874C113.393 6.84797 113.593 5.83945 113.991 4.89318C114.414 3.94692 114.974 3.12516 115.67 2.42792C116.392 1.70577 117.226 1.13303 118.171 0.709699C119.117 0.28637 120.137 0.0747051 121.232 0.0747051C122.302 0.0747051 123.309 0.28637 124.255 0.709699C125.226 1.13303 126.059 1.70577 126.756 2.42792C127.477 3.12516 128.05 3.94692 128.473 4.89318C128.896 5.83945 129.095 6.84797 129.07 7.91874V8.14286ZM146.613 8.14286C146.588 9.31324 146.327 10.6081 145.829 12.0275C145.356 13.4469 144.672 14.8539 143.776 16.2484C142.88 17.618 141.798 18.9253 140.529 20.1704C139.285 21.3906 137.879 22.4115 136.311 23.2333C136.311 23.2084 136.299 22.922 136.274 22.3742C136.249 21.8014 136.212 21.1166 136.162 20.3198C136.137 19.498 136.1 18.6265 136.05 17.7051C136 16.7837 135.963 15.962 135.938 15.2398C134.395 14.6671 133.176 13.7084 132.28 12.3637C131.384 11.019 130.936 9.53735 130.936 7.91874C130.936 6.84797 131.135 5.83945 131.533 4.89318C131.956 3.94692 132.516 3.12516 133.213 2.42792C133.935 1.70577 134.768 1.13303 135.714 0.709699C136.659 0.28637 137.68 0.0747051 138.774 0.0747051C139.844 0.0747051 140.852 0.28637 141.798 0.709699C142.768 1.13303 143.602 1.70577 144.299 2.42792C145.02 3.12516 145.593 3.94692 146.016 4.89318C146.439 5.83945 146.638 6.84797 146.613 7.91874V8.14286Z" fill="#5E5BDF"/>
<path d="M193.53 13.7457C193.53 15.5885 193.443 17.618 193.269 19.8342C193.095 22.0505 192.809 24.3414 192.411 26.7071C192.012 29.0727 191.49 31.4758 190.843 33.9161C190.221 36.3316 189.437 38.6599 188.491 40.901C187.546 43.1422 186.439 45.2464 185.17 47.2136C183.925 49.156 182.482 50.8617 180.84 52.3309C179.222 53.7752 177.406 54.9083 175.39 55.73C173.375 56.5767 171.135 57 168.672 57C165.785 57 163.272 56.5269 161.132 55.5806C159.017 54.6592 157.201 53.4142 155.683 51.8453C154.165 50.2516 152.921 48.4089 151.95 46.3172C150.98 44.2005 150.221 41.9718 149.673 39.6311C149.126 37.2654 148.74 34.8624 148.516 32.422C148.317 29.9567 148.218 27.5911 148.218 25.325C148.218 21.8388 148.392 18.365 148.74 14.9037C149.089 11.4174 149.586 7.94364 150.233 4.48231L167.701 5.15465C167.03 9.06422 166.445 12.9987 165.947 16.9581C165.474 20.8925 165.238 24.8519 165.238 28.8362C165.238 29.2595 165.25 29.8945 165.275 30.7412C165.325 31.5629 165.4 32.4967 165.499 33.5426C165.599 34.5636 165.736 35.6219 165.91 36.7176C166.109 37.7883 166.37 38.772 166.694 39.6684C167.017 40.5649 167.403 41.2995 167.851 41.8722C168.323 42.445 168.871 42.7313 169.493 42.7313C170.215 42.7313 170.862 42.3951 171.434 41.7228C172.006 41.0256 172.504 40.1042 172.927 38.9587C173.375 37.8132 173.761 36.4934 174.084 34.9993C174.407 33.5052 174.681 31.9489 174.905 30.3303C175.129 28.7117 175.303 27.0931 175.428 25.4744C175.577 23.8558 175.689 22.3493 175.764 20.9548C175.863 19.5603 175.925 18.3277 175.95 17.2569C175.975 16.1861 175.988 15.3893 175.988 14.8663C175.988 12.924 175.95 10.9941 175.876 9.07667C175.826 7.13434 175.739 5.20446 175.614 3.28702H193.082C193.381 6.72346 193.53 10.2097 193.53 13.7457Z" fill="#5E5BDF"/>
<path d="M240 19.3486C240 21.7641 239.639 23.9056 238.918 25.7733C238.196 27.6409 237.201 29.272 235.932 30.6664C234.687 32.0609 233.219 33.2438 231.527 34.2149C229.835 35.1861 228.019 35.983 226.078 36.6055C224.162 37.2031 222.171 37.6514 220.106 37.9502C218.04 38.2241 216.012 38.3735 214.022 38.3984V55.8047H196.628C196.628 50.1022 196.641 44.4246 196.666 38.772C196.691 33.1193 196.728 27.4168 196.778 21.6645C196.827 18.6265 196.84 15.5885 196.815 12.5505C196.79 9.51245 196.852 6.44954 197.002 3.36173C200.187 2.41547 203.372 1.70577 206.557 1.23263C209.742 0.759502 213.026 0.522936 216.411 0.522936C218.327 0.522936 220.243 0.684797 222.159 1.00852C224.075 1.30734 225.904 1.79292 227.645 2.46527C229.412 3.13761 231.042 3.98427 232.535 5.00524C234.053 6.00131 235.359 7.19659 236.454 8.59109C237.549 9.98558 238.407 11.5793 239.03 13.3722C239.677 15.1402 240 17.1324 240 19.3486ZM223.428 20.6186C223.428 19 222.93 17.7425 221.935 16.846C220.964 15.9246 219.695 15.464 218.128 15.464C217.605 15.464 217.058 15.5138 216.485 15.6134C215.938 15.6881 215.415 15.7877 214.918 15.9122L214.47 26.8191C214.818 26.8689 215.154 26.8938 215.477 26.8938C215.801 26.8938 216.137 26.8938 216.485 26.8938C217.381 26.8938 218.24 26.7444 219.061 26.4456C219.907 26.1468 220.653 25.7235 221.3 25.1756C221.947 24.6029 222.457 23.943 222.83 23.1959C223.229 22.424 223.428 21.5649 223.428 20.6186Z" fill="#5E5BDF"/>
</svg>
