<svg width="843" height="119" viewBox="0 0 843 119" fill="none" xmlns="http://www.w3.org/2000/svg">
<path d="M0.99 73.63C0.99 65.1433 2.57333 56.7833 5.74 48.55C9.03333 40.19 13.72 33.2867 19.8 27.84C21.32 19.6067 25.2467 12.9567 31.58 7.89C38.04 2.69666 47.2233 0.0999973 59.13 0.0999973C71.0367 0.0999973 80.5367 4.78666 87.63 14.16C94.85 23.4067 98.46 35.5033 98.46 50.45C98.46 60.2033 97.0033 69.45 94.09 78.19C99.9167 76.1633 105.173 73.63 109.86 70.59C114.673 67.4233 117.143 65.84 117.27 65.84C118.663 65.84 119.36 66.6633 119.36 68.31C119.36 69.7033 116.32 72.4267 110.24 76.48C104.16 80.4067 97.89 83.1933 91.43 84.84C86.7433 95.1 80.0933 103.207 71.48 109.16C62.8667 114.987 52.4167 117.9 40.13 117.9C27.97 117.9 18.4067 113.847 11.44 105.74C4.47333 97.5067 0.99 86.8033 0.99 73.63ZM81.17 80.47C82.8167 74.77 83.64 68.4367 83.64 61.47C83.64 46.5233 80.79 33.8567 75.09 23.47C69.5167 13.0833 61.5367 7.89 51.15 7.89C46.7167 7.89 42.2833 9.15666 37.85 11.69C33.5433 14.0967 30.44 17.39 28.54 21.57C35.1267 17.8967 41.7767 16.06 48.49 16.06C55.33 16.06 58.75 17.01 58.75 18.91C58.75 20.05 58.3067 20.9367 57.42 21.57C56.5333 22.2033 55.6467 22.52 54.76 22.52C43.8667 22.52 34.62 26.1933 27.02 33.54C28.0333 46.46 33.67 57.5433 43.93 66.79C54.3167 75.91 66.73 80.47 81.17 80.47ZM47.35 108.21C62.55 108.21 73.1267 101.053 79.08 86.74C63.88 86.74 50.6433 82.75 39.37 74.77C28.2233 66.79 21.6367 56.34 19.61 43.42C16.0633 50.1333 14.29 57.67 14.29 66.03C14.29 77.5567 17.4567 87.5 23.79 95.86C30.25 104.093 38.1033 108.21 47.35 108.21ZM124.098 105.74L124.288 111.63C124.288 115.177 123.275 116.95 121.248 116.95C118.208 116.95 115.295 116.57 112.508 115.81C109.721 114.923 108.328 113.783 108.328 112.39C108.328 110.87 108.645 105.867 109.278 97.38C110.038 88.7667 110.418 82.3067 110.418 78V66.79C110.418 60.71 111.051 57.0367 112.318 55.77C113.585 54.5033 115.801 52.6667 118.968 50.26C122.261 47.8533 124.605 46.65 125.998 46.65C127.518 46.65 128.468 46.9033 128.848 47.41C129.228 47.9167 129.418 48.8667 129.418 50.26C129.418 56.9733 128.151 63.3067 125.618 69.26C124.985 76.48 124.668 81.4833 124.668 84.27C131.381 71.73 136.068 63.4967 138.728 59.57C143.415 52.2233 147.658 48.55 151.458 48.55C153.865 48.55 156.081 49.5 158.108 51.4C160.261 53.3 161.338 55.6433 161.338 58.43C161.338 61.2167 161.275 63.8767 161.148 66.41C161.148 68.8167 161.085 70.7167 160.958 72.11C160.831 73.5033 160.768 74.39 160.768 74.77C161.275 73.7567 163.428 70.9067 167.228 66.22C171.028 61.5333 173.561 58.4933 174.828 57.1C176.221 55.7067 177.678 54.3133 179.198 52.92C182.111 50.0067 184.708 48.55 186.988 48.55C189.395 48.55 191.611 49.4367 193.638 51.21C195.791 52.9833 196.868 55.2 196.868 57.86C196.868 63.4333 196.235 71.6667 194.968 82.56C193.828 93.3267 193.258 100.167 193.258 103.08C193.258 105.867 193.638 107.26 194.398 107.26C196.551 107.133 199.528 104.473 203.328 99.28C207.128 93.96 210.865 87.1833 214.538 78.95C218.338 70.7167 220.618 66.6 221.378 66.6C222.265 66.6 222.708 67.1067 222.708 68.12C222.708 71.6667 220.871 77.3033 217.198 85.03C207.191 106.31 198.768 116.95 191.928 116.95C187.621 116.95 184.201 115.937 181.668 113.91C180.781 113.023 180.338 110.743 180.338 107.07C180.338 103.27 180.655 97.19 181.288 88.83C182.048 80.3433 182.428 74.01 182.428 69.83C182.428 65.65 181.731 63.56 180.338 63.56C178.691 63.56 175.081 66.3467 169.508 71.92C164.061 77.4933 161.148 81.42 160.768 83.7C160.008 88.0067 159.628 97.3167 159.628 111.63C159.628 115.177 158.678 116.95 156.778 116.95C153.865 116.95 151.078 116.57 148.418 115.81C145.885 114.923 144.618 113.783 144.618 112.39C144.618 110.87 144.998 104.6 145.758 93.58C146.518 82.56 146.898 74.8333 146.898 70.4C146.898 65.84 146.138 63.56 144.618 63.56C143.225 63.56 139.741 67.93 134.168 76.67C128.595 85.2833 125.491 91.3 124.858 94.72C124.351 98.14 124.098 101.813 124.098 105.74ZM264.697 116.95C259.757 116.95 256.02 115.937 253.487 113.91C252.6 113.023 252.157 110.807 252.157 107.26C252.157 103.587 252.283 98.71 252.537 92.63C249.243 100.863 245.95 107.007 242.657 111.06C239.49 114.987 235.373 116.95 230.307 116.95C225.24 116.95 220.807 114.607 217.007 109.92C213.207 105.107 211.307 97.6333 211.307 87.5C211.307 77.24 214.157 68.1833 219.857 60.33C225.683 52.4767 233.283 48.55 242.657 48.55C246.71 48.55 251.27 51.21 256.337 56.53C257.35 55.1367 259.123 53.49 261.657 51.59C264.317 49.5633 266.533 48.55 268.307 48.55C270.207 48.55 271.157 50.9567 271.157 55.77C271.157 57.0367 270.777 59.5067 270.017 63.18C269.383 66.8533 268.623 69.5133 267.737 71.16C266.597 74.0733 266.027 84.3967 266.027 102.13C266.027 105.55 266.407 107.26 267.167 107.26C269.32 107.133 272.297 104.473 276.097 99.28C279.897 93.96 283.633 87.1833 287.307 78.95C291.107 70.7167 293.387 66.6 294.147 66.6C295.033 66.6 295.477 67.1067 295.477 68.12C295.477 71.6667 293.64 77.3033 289.967 85.03C279.96 106.31 271.537 116.95 264.697 116.95ZM241.517 56.15C237.97 56.15 234.17 58.81 230.117 64.13C226.19 69.3233 224.227 75.4667 224.227 82.56C224.227 89.6533 225.24 95.48 227.267 100.04C229.42 104.6 232.207 106.88 235.627 106.88C239.807 106.88 245.95 96.43 254.057 75.53C254.183 74.5167 254.31 72.8067 254.437 70.4C254.69 67.8667 254.88 65.9667 255.007 64.7C253.867 62.6733 251.84 60.7733 248.927 59C246.14 57.1 243.67 56.15 241.517 56.15ZM300.571 66.41L311.021 65.27C312.034 65.27 312.921 65.84 313.681 66.98C314.441 68.12 314.821 69.3233 314.821 70.59C314.821 71.8567 314.378 76.1633 313.491 83.51C312.731 90.8567 312.351 96.6833 312.351 100.99C312.351 105.17 312.731 107.26 313.491 107.26C315.644 107.133 318.621 104.473 322.421 99.28C326.221 93.96 329.958 87.1833 333.631 78.95C337.431 70.7167 339.711 66.6 340.471 66.6C341.358 66.6 341.801 67.1067 341.801 68.12C341.801 71.6667 339.964 77.3033 336.291 85.03C326.284 106.31 317.861 116.95 311.021 116.95C306.081 116.95 302.344 115.937 299.811 113.91C298.924 113.023 298.481 107.513 298.481 97.38C298.481 87.2467 299.558 78.57 301.711 71.35C294.364 71.35 289.234 69.0067 286.321 64.32C284.801 61.9133 284.041 59.19 284.041 56.15C284.041 53.11 284.674 50.45 285.941 48.17C287.208 45.89 288.981 44.75 291.261 44.75C293.668 44.75 295.821 46.0167 297.721 48.55C299.748 50.9567 300.761 53.68 300.761 56.72C300.761 59.76 299.874 62.8 298.101 65.84C298.608 66.22 299.431 66.41 300.571 66.41ZM424.85 56.15C424.85 54.63 423.837 53.3633 421.81 52.35C419.784 51.21 417.44 50.64 414.78 50.64C412.12 50.64 409.524 51.2733 406.99 52.54C411.297 56.4667 416.047 58.43 421.24 58.43C422.38 58.43 423.267 58.1767 423.9 57.67C424.534 57.0367 424.85 56.53 424.85 56.15ZM433.78 24.42L434.16 19.29C434.16 16.5033 433.084 13.9067 430.93 11.5C428.904 8.96666 426.117 7.69999 422.57 7.69999C416.49 7.69999 410.98 10.4233 406.04 15.87C401.1 21.3167 398.63 27.1433 398.63 33.35C398.63 39.43 400.214 44.56 403.38 48.74C408.827 46.3333 413.894 45.13 418.58 45.13C423.267 45.13 427.004 45.9533 429.79 47.6C432.704 49.12 434.16 51.4633 434.16 54.63C434.16 57.7967 432.577 60.14 429.41 61.66C426.37 63.18 422.95 63.94 419.15 63.94C412.057 63.94 405.597 61.9767 399.77 58.05C396.73 61.2167 394.26 64.9533 392.36 69.26C390.587 73.5667 389.7 77.5567 389.7 81.23C389.7 88.7033 392.107 95.5433 396.92 101.75C401.734 107.957 408.13 111.06 416.11 111.06C432.83 111.06 446.447 100.04 456.96 78C460.507 70.78 462.724 67.17 463.61 67.17C464.624 67.17 465.13 67.6767 465.13 68.69C465.13 73.7567 461.964 81.42 455.63 91.68C449.424 101.813 442.647 108.907 435.3 112.96C428.08 116.887 419.15 118.85 408.51 118.85C397.997 118.85 389.7 115.747 383.62 109.54C377.54 103.333 374.5 95.6067 374.5 86.36C374.5 80.28 376.274 74.4533 379.82 68.88C383.494 63.18 388.18 58.3033 393.88 54.25C387.927 49.31 384.95 43.3567 384.95 36.39C384.95 26.7633 388.687 18.6567 396.16 12.07C403.634 5.35666 412.69 2 423.33 2C430.297 2 436.124 3.83666 440.81 7.50999C445.624 11.0567 448.03 15.3 448.03 20.24C448.03 23.0267 447.207 25.3067 445.56 27.08C443.914 28.8533 441.824 29.74 439.29 29.74C435.617 29.74 433.78 27.9667 433.78 24.42ZM466.944 116.95C464.158 116.95 461.561 116.633 459.154 116C456.874 115.24 455.481 114.543 454.974 113.91C453.708 112.39 453.074 104.537 453.074 90.35C453.074 76.0367 454.658 56.6567 457.824 32.21C460.484 12.07 466.691 2 476.444 2C478.724 2 480.371 3.26666 481.384 5.79999C482.398 8.20666 482.904 10.55 482.904 12.83C482.904 29.2967 477.901 47.7267 467.894 68.12C467.514 78.6333 467.324 87.8167 467.324 95.67C467.324 103.397 468.021 107.26 469.414 107.26C471.568 107.133 474.544 104.473 478.344 99.28C482.144 93.96 485.881 87.1833 489.554 78.95C493.354 70.7167 495.634 66.6 496.394 66.6C497.281 66.6 497.724 67.1067 497.724 68.12C497.724 71.6667 495.888 77.3033 492.214 85.03C482.208 106.31 473.784 116.95 466.944 116.95ZM478.154 14.54C478.154 10.4867 477.648 8.45999 476.634 8.45999C472.834 8.45999 470.048 24.23 468.274 55.77C474.861 38.4167 478.154 24.6733 478.154 14.54ZM502.057 105.74L502.247 111.63C502.247 115.177 501.234 116.95 499.207 116.95C496.167 116.95 493.254 116.57 490.467 115.81C487.68 114.923 486.287 113.783 486.287 112.39C486.287 110.87 486.604 105.867 487.237 97.38C487.997 88.7667 488.377 82.3067 488.377 78V66.98C488.377 34.5533 494.14 13.9067 505.667 5.03999C508.327 3.01333 511.05 2 513.837 2C515.104 2 516.37 3.39333 517.637 6.18C518.904 8.96666 519.537 12.5767 519.537 17.01C519.537 27.9033 517.7 38.1 514.027 47.6C510.354 57.1 506.617 64.3833 502.817 69.45C502.69 72.6167 502.627 77.5567 502.627 84.27C503.134 83.51 505.794 79.2033 510.607 71.35C515.42 63.4967 519.474 57.7333 522.767 54.06C526.187 50.3867 529.227 48.55 531.887 48.55C534.547 48.55 536.89 49.4367 538.917 51.21C541.07 52.9833 542.147 55.2 542.147 57.86C542.147 63.4333 541.514 71.6667 540.247 82.56C539.107 93.3267 538.537 100.167 538.537 103.08C538.537 105.867 538.917 107.26 539.677 107.26C541.83 107.133 544.807 104.473 548.607 99.28C552.407 93.96 556.144 87.1833 559.817 78.95C563.617 70.7167 565.897 66.6 566.657 66.6C567.544 66.6 567.987 67.1067 567.987 68.12C567.987 71.6667 566.15 77.3033 562.477 85.03C552.47 106.31 544.047 116.95 537.207 116.95C532.267 116.95 528.53 115.937 525.997 113.91C525.11 113.023 524.667 110.743 524.667 107.07C524.667 103.27 524.984 97.19 525.617 88.83C526.377 80.3433 526.757 74.01 526.757 69.83C526.757 65.65 525.997 63.56 524.477 63.56C523.084 63.56 519.284 67.93 513.077 76.67C506.87 85.2833 503.577 90.7933 503.197 93.2C502.437 97.6333 502.057 101.813 502.057 105.74ZM514.407 21.19C514.407 15.87 513.71 13.21 512.317 13.21C510.037 13.21 507.82 20.24 505.667 34.3C504.527 41.7733 503.704 50.45 503.197 60.33C510.67 44.75 514.407 31.7033 514.407 21.19ZM635.835 76.67C641.155 76.67 646.095 74.39 650.655 69.83C652.935 67.55 654.455 66.41 655.215 66.41C656.102 66.41 656.545 67.0433 656.545 68.31C656.545 69.5767 655.722 71.0967 654.075 72.87C647.362 80.3433 638.938 84.08 628.805 84.08C626.778 93.4533 623.612 101.307 619.305 107.64C614.998 113.847 609.552 116.95 602.965 116.95C596.378 116.95 591.628 113.087 588.715 105.36C583.522 113.087 578.138 116.95 572.565 116.95C562.052 116.95 556.795 106.817 556.795 86.55C556.795 72.49 558.188 62.9267 560.975 57.86C561.482 56.9733 563.382 55.5167 566.675 53.49C569.968 51.4633 572.248 50.45 573.515 50.45C575.415 50.45 576.365 51.59 576.365 53.87C576.112 59.8233 574.338 66.8533 571.045 74.96C570.285 76.48 569.905 80.1533 569.905 85.98C569.905 91.68 570.538 96.7467 571.805 101.18C573.198 105.487 575.162 107.64 577.695 107.64C580.228 107.64 583.332 104.6 587.005 98.52C586.372 95.3533 586.055 91.9967 586.055 88.45C586.055 84.7767 586.435 80.9133 587.195 76.86C587.955 72.68 589.475 68.5 591.755 64.32C594.035 60.14 596.758 58.05 599.925 58.05C600.938 58.05 601.635 58.3667 602.015 59C602.522 59.6333 602.775 61.1533 602.775 63.56C602.775 70.02 601.065 78.0633 597.645 87.69C598.152 93.2633 599.418 98.0133 601.445 101.94C603.598 105.74 605.942 107.64 608.475 107.64C612.148 107.64 615.252 105.297 617.785 100.61C620.318 95.7967 622.282 89.97 623.675 83.13C618.988 81.8633 615.378 79.4567 612.845 75.91C610.312 72.3633 609.045 68.31 609.045 63.75C609.045 59.0633 610.122 55.0733 612.275 51.78C614.555 48.36 617.848 46.65 622.155 46.65C627.982 46.65 630.895 52.92 630.895 65.46C630.895 68.7533 630.705 72.1733 630.325 75.72C632.225 76.3533 634.062 76.67 635.835 76.67ZM620.825 53.87C619.685 53.87 619.115 56.0233 619.115 60.33C619.115 64.6367 621.078 68.6267 625.005 72.3C625.132 71.6667 625.195 70.7167 625.195 69.45C625.195 59.0633 623.738 53.87 620.825 53.87ZM698.505 116.95C693.565 116.95 689.829 115.937 687.295 113.91C686.409 113.023 685.965 110.807 685.965 107.26C685.965 103.587 686.092 98.71 686.345 92.63C683.052 100.863 679.759 107.007 676.465 111.06C673.299 114.987 669.182 116.95 664.115 116.95C659.049 116.95 654.615 114.607 650.815 109.92C647.015 105.107 645.115 97.6333 645.115 87.5C645.115 77.24 647.965 68.1833 653.665 60.33C659.492 52.4767 667.092 48.55 676.465 48.55C680.519 48.55 685.079 51.21 690.145 56.53C691.159 55.1367 692.932 53.49 695.465 51.59C698.125 49.5633 700.342 48.55 702.115 48.55C704.015 48.55 704.965 50.9567 704.965 55.77C704.965 57.0367 704.585 59.5067 703.825 63.18C703.192 66.8533 702.432 69.5133 701.545 71.16C700.405 74.0733 699.835 84.3967 699.835 102.13C699.835 105.55 700.215 107.26 700.975 107.26C703.129 107.133 706.105 104.473 709.905 99.28C713.705 93.96 717.442 87.1833 721.115 78.95C724.915 70.7167 727.195 66.6 727.955 66.6C728.842 66.6 729.285 67.1067 729.285 68.12C729.285 71.6667 727.449 77.3033 723.775 85.03C713.769 106.31 705.345 116.95 698.505 116.95ZM675.325 56.15C671.779 56.15 667.979 58.81 663.925 64.13C659.999 69.3233 658.035 75.4667 658.035 82.56C658.035 89.6533 659.049 95.48 661.075 100.04C663.229 104.6 666.015 106.88 669.435 106.88C673.615 106.88 679.759 96.43 687.865 75.53C687.992 74.5167 688.119 72.8067 688.245 70.4C688.499 67.8667 688.689 65.9667 688.815 64.7C687.675 62.6733 685.649 60.7733 682.735 59C679.949 57.1 677.479 56.15 675.325 56.15ZM734.38 66.41L744.83 65.27C745.843 65.27 746.73 65.84 747.49 66.98C748.25 68.12 748.63 69.3233 748.63 70.59C748.63 71.8567 748.186 76.1633 747.3 83.51C746.54 90.8567 746.16 96.6833 746.16 100.99C746.16 105.17 746.54 107.26 747.3 107.26C749.453 107.133 752.43 104.473 756.23 99.28C760.03 93.96 763.766 87.1833 767.44 78.95C771.24 70.7167 773.52 66.6 774.28 66.6C775.166 66.6 775.61 67.1067 775.61 68.12C775.61 71.6667 773.773 77.3033 770.1 85.03C760.093 106.31 751.67 116.95 744.83 116.95C739.89 116.95 736.153 115.937 733.62 113.91C732.733 113.023 732.29 107.513 732.29 97.38C732.29 87.2467 733.366 78.57 735.52 71.35C728.173 71.35 723.043 69.0067 720.13 64.32C718.61 61.9133 717.85 59.19 717.85 56.15C717.85 53.11 718.483 50.45 719.75 48.17C721.016 45.89 722.79 44.75 725.07 44.75C727.476 44.75 729.63 46.0167 731.53 48.55C733.556 50.9567 734.57 53.68 734.57 56.72C734.57 59.76 733.683 62.8 731.91 65.84C732.416 66.22 733.24 66.41 734.38 66.41ZM773.307 23.09C773.307 20.81 774.511 18.8467 776.917 17.2C779.324 15.5533 781.477 14.73 783.377 14.73C786.797 14.73 788.507 16.6933 788.507 20.62C788.507 24.5467 787.494 27.9667 785.467 30.88C783.441 33.6667 780.591 35.06 776.917 35.06C774.511 35.06 773.307 31.07 773.307 23.09ZM778.817 116.95C773.877 116.95 770.141 115.937 767.607 113.91C766.721 113.023 766.277 109.857 766.277 104.41C766.277 98.9633 766.657 89.9067 767.417 77.24C768.304 64.4467 769.064 57.5433 769.697 56.53C770.331 55.5167 772.294 53.6167 775.587 50.83C778.881 48.0433 781.414 46.65 783.187 46.65C785.087 46.65 786.037 49.0567 786.037 53.87C786.037 55.1367 785.657 57.6067 784.897 61.28C784.264 64.9533 783.504 67.6133 782.617 69.26C780.971 73.44 780.147 84.3967 780.147 102.13C780.147 105.55 780.527 107.26 781.287 107.26C783.441 107.133 786.417 104.473 790.217 99.28C794.017 93.96 797.754 87.1833 801.427 78.95C805.227 70.7167 807.507 66.6 808.267 66.6C809.154 66.6 809.597 67.1067 809.597 68.12C809.597 71.6667 807.761 77.3033 804.087 85.03C794.081 106.31 785.657 116.95 778.817 116.95ZM806.52 23.09C806.52 20.81 807.724 18.8467 810.13 17.2C812.537 15.5533 814.69 14.73 816.59 14.73C820.01 14.73 821.72 16.6933 821.72 20.62C821.72 24.5467 820.707 27.9667 818.68 30.88C816.654 33.6667 813.804 35.06 810.13 35.06C807.724 35.06 806.52 31.07 806.52 23.09ZM812.03 116.95C807.09 116.95 803.354 115.937 800.82 113.91C799.934 113.023 799.49 109.857 799.49 104.41C799.49 98.9633 799.87 89.9067 800.63 77.24C801.517 64.4467 802.277 57.5433 802.91 56.53C803.544 55.5167 805.507 53.6167 808.8 50.83C812.094 48.0433 814.627 46.65 816.4 46.65C818.3 46.65 819.25 49.0567 819.25 53.87C819.25 55.1367 818.87 57.6067 818.11 61.28C817.477 64.9533 816.717 67.6133 815.83 69.26C814.184 73.44 813.36 84.3967 813.36 102.13C813.36 105.55 813.74 107.26 814.5 107.26C816.654 107.133 819.63 104.473 823.43 99.28C827.23 93.96 830.967 87.1833 834.64 78.95C838.44 70.7167 840.72 66.6 841.48 66.6C842.367 66.6 842.81 67.1067 842.81 68.12C842.81 71.6667 840.974 77.3033 837.3 85.03C827.294 106.31 818.87 116.95 812.03 116.95Z" fill="#3A3A3A"/>
</svg>
