<svg width="248" height="234" viewBox="0 0 248 234" fill="none" xmlns="http://www.w3.org/2000/svg">
<rect x="124" width="124" height="234" fill="#F3CE5D"/>
<path d="M150.884 53.4312C151.489 51.6744 152.44 50.1686 153.737 48.9137C155.121 47.6588 156.591 46.6131 158.148 45.7765C159.791 44.8563 161.477 44.1034 163.207 43.5178C164.936 42.9321 166.579 42.4302 168.136 42.0119C171.595 40.5897 175.27 39.2512 179.161 37.9963C183.139 36.6578 187.16 35.4866 191.225 34.4827C195.376 33.4788 199.613 32.8514 203.937 32.6004C208.261 32.2658 212.801 32.7677 217.557 34.1062C217.816 34.9428 218.205 35.7376 218.724 36.4905C219.243 37.2434 219.762 37.9963 220.281 38.7492C220.886 39.5022 221.405 40.2551 221.837 41.008C222.27 41.6773 222.529 42.3884 222.616 43.1413C223.48 43.8942 224.172 44.7308 224.691 45.651C225.21 46.4876 225.296 47.617 224.951 49.0392C224.086 49.7084 223.221 50.3359 222.356 50.9215C221.578 51.4234 220.713 51.8835 219.762 52.3018C216.562 51.5489 213.32 51.2979 210.033 51.5489C206.747 51.7999 203.807 52.009 201.213 52.1764C200.435 51.4234 199.483 51.047 198.359 51.047C197.321 51.047 196.197 51.2143 194.987 51.5489C193.862 51.8835 192.695 52.2182 191.484 52.5528C190.36 52.8874 189.279 52.9711 188.241 52.8038C187.377 53.473 186.296 53.9332 184.999 54.1841C183.788 54.3515 182.448 54.5188 180.977 54.6861C180.891 55.1044 180.977 55.3972 181.237 55.5645C181.496 55.6482 181.54 55.8991 181.367 56.3174C181.885 56.903 182.534 57.3213 183.312 57.5723C184.177 57.8233 185.042 58.0742 185.907 58.3252C186.858 58.5762 187.679 58.9108 188.371 59.3291C189.063 59.6637 189.539 60.2493 189.798 61.0859C191.095 61.0859 192.219 61.3787 193.171 61.9643C194.122 62.5499 194.9 63.261 195.505 64.0976C196.111 64.9342 196.543 65.8544 196.803 66.8583C197.148 67.7786 197.321 68.6151 197.321 69.3681C197.581 70.0373 197.884 70.3301 198.229 70.2465C198.575 70.1628 198.964 70.3301 199.397 70.7484C199.656 71.836 200.305 72.9654 201.343 74.1366C202.38 75.2241 203.202 76.4372 203.807 77.7757C203.98 79.8671 204.11 81.7494 204.196 83.4226C204.283 85.0121 203.98 86.6434 203.288 88.3166C201.991 91.4119 200.175 94.1726 197.84 96.5987C195.592 99.0248 192.998 101.2 190.057 103.124C187.204 104.965 184.134 106.554 180.848 107.893C177.562 109.231 174.362 110.36 171.249 111.281C170.903 111.197 170.557 111.197 170.211 111.281C169.865 111.364 169.779 111.155 169.952 110.653C169.26 111.239 168.482 111.615 167.617 111.783C166.839 111.95 165.974 111.992 165.023 111.908C164.071 111.908 163.077 111.866 162.039 111.783C161.088 111.699 160.18 111.741 159.315 111.908C158.71 111.323 158.148 110.737 157.629 110.151C157.197 109.649 156.851 108.98 156.591 108.144C156.159 108.144 155.943 107.934 155.943 107.516C156.029 107.098 155.899 106.889 155.553 106.889C156.072 106.052 156.289 105.592 156.202 105.508C156.202 105.341 156.072 105.215 155.813 105.132C155.64 105.048 155.467 104.965 155.294 104.881C155.121 104.714 155.078 104.504 155.164 104.253C155.51 103.584 155.64 102.831 155.553 101.995C155.467 101.074 155.381 100.154 155.294 99.2339C155.208 98.3137 155.251 97.4353 155.424 96.5987C155.683 95.7621 156.332 95.0929 157.369 94.5909C160.31 94.9256 163.077 94.8419 165.671 94.34C168.352 93.7544 170.86 92.9596 173.195 91.9557C175.529 90.9518 177.735 89.8643 179.81 88.693C181.972 87.5218 184.091 86.4761 186.166 85.5559C186.425 84.803 186.771 84.1755 187.204 83.6736C187.723 83.1716 188.241 82.7115 188.76 82.2932C189.279 81.8749 189.755 81.4148 190.187 80.9129C190.62 80.4109 190.922 79.7835 191.095 79.0306C191.182 78.445 191.009 78.1103 190.576 78.0267C190.23 77.8593 190.057 77.5247 190.057 77.0228L188.631 76.6463C186.988 75.7261 185.128 74.9731 183.053 74.3875C180.977 73.7183 179.205 73.0072 177.735 72.2543C176.783 72.7562 175.875 72.8817 175.011 72.6307C174.232 72.3797 173.195 72.1288 171.897 71.8778C168.957 71.7105 166.104 71.4177 163.336 70.9994C160.656 70.5811 158.061 69.8282 155.553 68.7406C155.381 68.3223 155.164 67.9459 154.905 67.6112C154.645 67.2766 154.17 67.193 153.478 67.3603C152.959 66.691 152.44 66.0636 151.921 65.478C151.403 64.8087 150.927 64.0976 150.495 63.3447C150.668 62.3408 150.797 61.5042 150.884 60.8349C150.97 60.082 150.711 59.3709 150.105 58.7017C150.451 57.6141 150.711 56.7357 150.884 56.0664C151.057 55.3972 151.057 54.5188 150.884 53.4312Z" fill="black"/>
<path d="M204.586 197.497C203.203 197.581 201.473 197.539 199.398 197.372C197.409 197.204 195.549 197.497 193.82 198.25C189.237 198.083 184.567 197.539 179.811 196.619C175.055 195.698 170.688 194.569 166.71 193.231C165.845 192.31 164.98 191.474 164.115 190.721C163.251 189.884 162.083 189.299 160.613 188.964C158.538 187.374 156.851 185.45 155.554 183.192C154.257 180.849 153.219 178.381 152.441 175.788C151.663 173.194 151.144 170.559 150.884 167.882C150.625 165.121 150.539 162.486 150.625 159.976C151.922 156.212 153.738 152.991 156.073 150.314C158.494 147.553 160.959 144.834 163.467 142.157C164.591 141.655 165.412 141.153 165.931 140.651C166.537 140.066 167.142 139.564 167.747 139.146C168.439 138.644 169.088 138.184 169.693 137.765C170.385 137.263 170.99 136.678 171.509 136.008C173.325 135.59 174.882 135.005 176.179 134.252C177.562 133.415 178.903 132.578 180.2 131.742C181.497 130.822 182.837 129.985 184.221 129.232C185.605 128.479 187.204 127.894 189.02 127.475C189.712 126.722 190.534 126.137 191.485 125.719C192.436 125.217 193.388 124.756 194.339 124.338C195.376 123.836 196.328 123.334 197.192 122.832C198.144 122.33 198.879 121.661 199.398 120.825C199.83 121.494 200.435 121.745 201.214 121.577C201.992 121.326 202.727 121.076 203.419 120.825C203.851 120.741 204.197 120.825 204.456 121.076C204.802 121.326 205.105 121.577 205.364 121.828C205.624 122.079 205.84 122.247 206.013 122.33C206.272 122.33 206.489 122.121 206.662 121.703C207.094 121.703 207.224 121.912 207.051 122.33C206.878 122.749 206.748 123.041 206.662 123.209C207.353 123.125 207.915 123.292 208.348 123.711C208.867 124.045 209.645 124.255 210.683 124.338C211.029 124.756 211.115 125.091 210.942 125.342C210.769 125.509 210.683 125.844 210.683 126.346C213.277 127.099 214.92 128.312 215.612 129.985C216.304 131.575 216.347 133.248 215.742 135.005C215.136 136.761 214.055 138.393 212.499 139.899C210.942 141.404 209.256 142.408 207.44 142.91C203.289 143.998 199.354 145.211 195.636 146.549C192.004 147.804 189.02 149.687 186.686 152.196C184.61 152.782 182.751 153.577 181.108 154.581C179.551 155.501 178.038 156.588 176.568 157.843C175.184 159.014 173.844 160.269 172.547 161.608C171.336 162.863 170.039 164.118 168.655 165.372C168.742 166.544 168.526 167.464 168.007 168.133C167.574 168.719 167.142 169.346 166.71 170.015C166.883 171.27 167.185 172.4 167.618 173.404C168.05 174.324 168.526 175.244 169.044 176.164C174.752 177.837 180.805 178.883 187.204 179.301C193.69 179.72 200.176 179.971 206.662 180.054C207.267 180.891 207.959 181.686 208.737 182.439C209.602 183.108 210.38 183.861 211.072 184.697C211.764 185.45 212.326 186.329 212.758 187.333C213.191 188.253 213.277 189.424 213.018 190.846C211.807 192.101 210.467 193.272 208.996 194.36C207.526 195.364 206.056 196.409 204.586 197.497Z" fill="black"/>
<path d="M88.8508 71.6158C90.5236 67.9652 91.36 64.0265 91.36 59.7995C91.36 55.6686 90.5236 51.7298 88.8508 47.9832C87.178 44.2365 84.9148 41.0183 82.0612 38.3284C79.306 35.5424 76.0588 33.3329 72.3196 31.6997C68.5804 30.0666 64.5953 29.25 60.3641 29.25C56.0345 29.25 52.0001 30.0666 48.2609 31.6997C44.5217 33.3329 41.2253 35.5424 38.3717 38.3284C35.6165 41.0183 33.4026 44.2365 31.7298 47.9832C30.1554 51.7298 29.3682 55.6686 29.3682 59.7995C29.3682 64.0265 30.1554 67.9652 31.7298 71.6158C33.4026 75.2664 35.6165 78.4846 38.3717 81.2706C41.2253 83.9605 44.5217 86.122 48.2609 87.7551C52.0001 89.2922 56.0345 90.0608 60.3641 90.0608C64.5953 90.0608 68.5804 89.2922 72.3196 87.7551C76.0588 86.122 79.306 83.9605 82.0612 81.2706C84.9148 78.4846 87.178 75.2664 88.8508 71.6158Z" fill="black"/>
<path d="M91.3613 145.862C91.2629 150.377 90.2297 155.372 88.2617 160.848C86.3921 166.324 83.6861 171.752 80.1437 177.132C76.6014 182.415 72.321 187.411 67.3026 192.118C62.3826 196.922 56.823 200.909 50.6238 204.079C50.6238 203.983 50.5746 202.83 50.4762 200.62C50.3778 198.507 50.2302 195.865 50.0334 192.695C49.935 189.621 49.7874 186.306 49.5906 182.752C49.3938 179.197 49.2462 176.027 49.1478 173.241C43.0471 171.031 38.2255 167.333 34.6831 162.145C31.1407 156.958 29.3695 151.242 29.3695 144.997C29.3695 140.866 30.1567 136.976 31.7311 133.325C33.4039 129.674 35.6179 126.504 38.3731 123.814C41.2267 121.028 44.5231 118.819 48.2622 117.186C52.0014 115.553 56.0358 114.736 60.3654 114.736C64.5966 114.736 68.5818 115.553 72.321 117.186C76.1586 118.819 79.4549 121.028 82.2101 123.814C85.0637 126.504 87.3269 129.674 88.9997 133.325C90.6725 136.976 91.4597 140.866 91.3613 144.997V145.862Z" fill="black"/>
</svg>
