<svg width="114" height="62" viewBox="0 0 114 62" fill="none" xmlns="http://www.w3.org/2000/svg">
<path fill-rule="evenodd" clip-rule="evenodd" d="M0 25.6005C0 22.957 2.56087 18.6613 7.68261 12.7135C12.8043 6.60048 16.9348 3.54396 20.0739 3.54396C23.3783 3.54396 25.7739 4.78309 27.2609 7.26135C28.913 9.73961 29.9043 12.4657 30.2348 15.4396C30.5652 18.4135 31.4739 21.1396 32.9609 23.6179C34.613 26.0961 36.9261 27.3353 39.9 27.3353C43.0391 27.3353 45.7652 26.0135 48.0782 23.37C50.5565 20.5614 52.5391 17.5048 54.0261 14.2005C55.513 10.7309 57.4956 7.67439 59.9739 5.03092C62.4522 2.22222 64.8478 0.817871 67.1609 0.817871C69.6391 0.817871 71.3739 1.80917 72.3652 3.79179C82.6087 25.7657 93.0174 36.7527 103.591 36.7527C105.243 36.7527 106.73 36.5048 108.052 36.0092C109.374 35.5135 110.365 35.2657 111.026 35.2657C113.009 35.2657 114 36.8353 114 39.9744C114 45.5918 111.026 50.6309 105.078 55.0918C99.2956 59.5526 93.3478 61.7831 87.2348 61.7831C81.1217 61.7831 75.9174 59.8005 71.6217 55.8353C67.4913 51.87 64.6 47.8222 62.9478 43.6918C61.4608 39.3961 60.3043 35.2657 59.4782 31.3005C58.8174 27.3353 58.0739 25.3526 57.2478 25.3526C55.9261 25.3526 53.2826 27.9961 49.3174 33.2831C45.5174 38.4048 41.1391 43.6092 36.1826 48.8961C31.3913 54.1831 27.0956 56.8266 23.2956 56.8266C19.3304 56.3309 16.1913 54.3483 13.8783 50.8787C11.5652 47.5744 10.0783 44.1048 9.41739 40.47C7.93043 30.557 4.7913 25.6005 0 25.6005Z" fill="url(#paint0_linear)"/>
<defs>
<linearGradient id="paint0_linear" x1="-34.1854" y1="58.57" x2="263.206" y2="58.57" gradientUnits="userSpaceOnUse">
<stop stop-color="#29B79F"/>
<stop offset="1" stop-color="#5F5DD7"/>
</linearGradient>
</defs>
</svg>
