<svg width="32" height="32" viewBox="0 0 32 32" fill="none" xmlns="http://www.w3.org/2000/svg">
  <rect x="1.38281" y="1.38464" width="29.2308" height="29.2308" rx="2" fill="#353839"/>
  <path d="M17.4618 16.7307C17.4618 12.542 14.9259 10.1538 11.6157 10.1538C8.28722 10.1538 5.76953 12.542 5.76953 16.7307C5.76953 20.9007 8.28722 23.3077 11.6157 23.3077C14.9259 23.3077 17.4618 20.9195 17.4618 16.7307ZM14.7857 16.7307C14.7857 19.444 13.5299 20.9132 11.6157 20.9132C9.69542 20.9132 8.44572 19.444 8.44572 16.7307C8.44572 14.0174 9.69542 12.5483 11.6157 12.5483C13.5299 12.5483 14.7857 14.0174 14.7857 16.7307Z" fill="white"/>
  <path d="M18.9219 23.3077H26.2296V21.0147H21.2082V17.874H25.8336V15.5811H21.2082V12.4467H26.2084V10.1538H18.9219V23.3077Z" fill="white"/>
</svg>
