<svg width="16" height="14" viewBox="0 0 16 14" fill="none" xmlns="http://www.w3.org/2000/svg">
<path d="M3.09375 13.381C2.82366 13.8524 2.21964 14.0095 1.75312 13.7395C1.2817 13.4694 1.12455 12.8654 1.39464 12.3988L2.09687 11.1859C2.8875 10.9453 3.53571 11.1319 4.04152 11.7457L3.09375 13.381ZM9.91473 10.7341H0.982143C0.441964 10.7341 0 10.2921 0 9.75196C0 9.21178 0.441964 8.76982 0.982143 8.76982H3.48661L6.69821 3.21089L5.69152 1.4725C5.42143 1.00107 5.58348 0.40196 6.05 0.131871C6.52143 -0.138218 7.12054 0.0238354 7.39062 0.490353L7.82768 1.2466L8.26473 0.490353C8.53482 0.0189247 9.13884 -0.138218 9.60536 0.131871C10.0768 0.40196 10.2339 1.00598 9.96384 1.4725L5.75045 8.76982H8.8C9.79196 8.76982 10.3469 9.93366 9.91473 10.7341ZM14.7321 10.7341H13.308L14.2705 12.3988C14.5406 12.8703 14.3786 13.4694 13.9121 13.7395C13.4406 14.0095 12.8415 13.8475 12.5714 13.381C10.9558 10.5868 9.74777 8.48499 8.9375 7.09035C8.11741 5.66624 8.70179 4.24214 9.28616 3.76089C9.92946 4.87562 10.892 6.54526 12.1786 8.76982H14.7321C15.2723 8.76982 15.7143 9.21178 15.7143 9.75196C15.7143 10.297 15.2723 10.7341 14.7321 10.7341Z" fill="#87DFB5"/>
</svg>
