<svg width="24" height="24" viewBox="0 0 24 24" fill="none" xmlns="http://www.w3.org/2000/svg">
  <path d="M12.2599 21.9567H12.1599C10.7885 21.9463 9.43286 21.6623 8.1725 21.1214C6.91215 20.5805 5.77238 19.7936 4.81994 18.8067C3.05378 16.918 2.04982 14.442 2.00181 11.8566C1.95379 9.27124 2.86513 6.7597 4.55994 4.80671C5.65182 3.58306 7.02447 2.64279 8.55994 2.06671C8.7391 1.99777 8.93432 1.98186 9.12228 2.02087C9.31025 2.05988 9.48301 2.15217 9.61994 2.28671C9.74676 2.41603 9.83607 2.57737 9.87834 2.7535C9.92061 2.92962 9.91425 3.11392 9.85994 3.28671C9.31189 4.78765 9.20331 6.41376 9.54694 7.97424C9.89056 9.53471 10.6721 10.9648 11.7999 12.0967C12.9383 13.2211 14.3718 14 15.9345 14.3433C17.4972 14.6867 19.1252 14.5803 20.6299 14.0367C20.809 13.9737 21.0024 13.9629 21.1874 14.0057C21.3724 14.0485 21.5414 14.1431 21.6746 14.2784C21.8078 14.4137 21.8997 14.5842 21.9396 14.7698C21.9795 14.9554 21.9658 15.1486 21.8999 15.3267C21.3891 16.6904 20.5911 17.9284 19.5599 18.9567C18.6008 19.913 17.4621 20.6703 16.2093 21.1852C14.9565 21.7 13.6144 21.9622 12.2599 21.9567ZM7.41994 4.87671C6.91761 5.22901 6.45787 5.63842 6.04994 6.09671C4.67448 7.67285 3.93336 9.70363 3.97031 11.7952C4.00726 13.8868 4.81966 15.8901 6.24994 17.4167C7.01846 18.2149 7.9392 18.8509 8.95773 19.2872C9.97626 19.7235 11.0719 19.9511 12.1799 19.9567H12.2599C13.5861 19.956 14.893 19.6389 16.0722 19.032C17.2513 18.425 18.2687 17.5456 19.0399 16.4667C17.4683 16.6704 15.8709 16.5111 14.3704 16.0011C12.8699 15.4911 11.5062 14.644 10.3842 13.5249C9.2621 12.4057 8.41147 11.0442 7.89762 9.54506C7.38376 8.04589 7.22035 6.44889 7.41994 4.87671Z" fill="#111111"/>
</svg>
