<svg width="293" height="56" viewBox="0 0 293 56" fill="none" xmlns="http://www.w3.org/2000/svg">
  <path d="M19.852 5.51201C20.4346 5.75734 21.0326 6.07934 21.646 6.47801C22.2593 6.84601 22.8266 7.22934 23.348 7.62801C23.8693 8.02667 24.2986 8.42534 24.636 8.82401C25.004 9.19201 25.2033 9.49867 25.234 9.74401C24.7126 9.62134 24.1913 9.54467 23.67 9.51401C23.1486 9.45268 22.6733 9.42201 22.244 9.42201C20.864 9.42201 19.484 9.75934 18.104 10.434C16.7546 11.1087 15.4666 12.0287 14.24 13.194C13.0133 14.3593 11.8786 15.724 10.836 17.288C9.79329 18.852 8.88863 20.5233 8.12196 22.302C7.38596 24.0807 6.8033 25.9207 6.37396 27.822C5.94463 29.7233 5.72996 31.594 5.72996 33.434C5.72996 35.826 6.12863 37.6047 6.92596 38.77C7.72329 39.9353 8.88863 40.518 10.422 40.518C11.158 40.518 11.9553 40.3647 12.814 40.058C13.6726 39.782 14.5466 39.3833 15.436 38.862C16.3253 38.3407 17.1993 37.712 18.058 36.976C18.9166 36.24 19.714 35.4273 20.45 34.538C21.5233 33.25 22.4893 31.7933 23.348 30.168C24.2066 28.512 24.9273 26.764 25.51 24.924C26.1233 23.084 26.5833 21.198 26.89 19.266C27.2273 17.3033 27.396 15.3867 27.396 13.516C27.396 12.78 27.3806 12.1667 27.35 11.676C27.3193 11.1547 27.2733 10.7253 27.212 10.388C27.1813 10.02 27.1506 9.72868 27.12 9.51401C27.0893 9.29934 27.0586 9.11534 27.028 8.96201C27.396 9.14601 27.7946 9.37601 28.224 9.65201C28.684 9.89734 29.098 10.2807 29.466 10.802C29.8646 11.2927 30.1866 11.952 30.432 12.78C30.708 13.608 30.846 14.6813 30.846 16C30.846 18.1467 30.5853 20.2627 30.064 22.348C29.5733 24.4027 28.868 26.3653 27.948 28.236C27.0586 30.1067 26.0006 31.8547 24.774 33.48C23.5473 35.1053 22.2286 36.5313 20.818 37.758C18.978 39.3833 17.0153 40.6407 14.93 41.53C12.8446 42.4193 10.836 42.864 8.90396 42.864C6.08263 42.864 3.92063 41.9593 2.41796 40.15C0.945961 38.3713 0.209961 35.734 0.209961 32.238C0.209961 30.3673 0.409294 28.3893 0.807961 26.304C1.23729 24.2187 1.81996 22.164 2.55596 20.14C3.32263 18.116 4.22729 16.1993 5.26996 14.39C6.31263 12.55 7.44729 10.94 8.67396 9.56001C9.93129 8.14934 11.2653 7.03001 12.676 6.20201C14.1173 5.37401 15.5893 4.96001 17.092 4.96001C17.5826 4.96001 18.0426 5.00601 18.472 5.09801C18.9013 5.15934 19.3613 5.29734 19.852 5.51201Z" fill="#111111"/>
  <path d="M57.8429 24.878C57.3523 24.9087 56.7543 25.2307 56.0489 25.844C55.3436 26.4267 54.5769 27.1933 53.7489 28.144C52.9516 29.064 52.1083 30.0913 51.2189 31.226C50.3603 32.3607 49.5169 33.4953 48.6889 34.63C47.8916 35.734 47.1403 36.7767 46.4349 37.758C45.7296 38.7393 45.1316 39.5213 44.6409 40.104C43.9663 39.828 43.3836 39.4293 42.8929 38.908C42.4023 38.356 42.0496 37.6813 41.8349 36.884C41.9883 35.9333 42.2029 34.952 42.4789 33.94C42.7549 32.8973 43.1076 31.824 43.5369 30.72C43.9969 29.616 44.5489 28.466 45.1929 27.27C45.8676 26.0433 46.6803 24.7553 47.6309 23.406C47.1709 23.4367 46.5423 23.774 45.7449 24.418C44.9476 25.0313 44.0889 25.844 43.1689 26.856C42.2489 27.8373 41.2983 28.9567 40.3169 30.214C39.3356 31.4407 38.4156 32.652 37.5569 33.848C36.4223 35.4427 35.4716 36.838 34.7049 38.034C33.9689 39.23 33.4323 39.9353 33.0949 40.15C32.2976 39.5673 31.7456 38.9387 31.4389 38.264C31.1323 37.5893 30.9023 36.838 30.7489 36.01C30.7796 35.274 30.8869 34.354 31.0709 33.25C31.2856 32.146 31.5769 31.0113 31.9449 29.846C32.6503 27.6073 33.5549 25.384 34.6589 23.176C35.7936 20.968 36.8823 18.944 37.9249 17.104C38.7836 17.288 39.5503 17.5793 40.2249 17.978C40.9303 18.3767 41.6663 18.9593 42.4329 19.726C42.1263 20.6767 41.6509 21.6887 41.0069 22.762C40.3629 23.8047 39.6883 24.9087 38.9829 26.074C38.2776 27.2393 37.6336 28.4353 37.0509 29.662C36.4683 30.8887 36.0849 32.1307 35.9009 33.388C36.7596 32.1613 37.7716 30.7507 38.9369 29.156C40.1329 27.5613 41.3443 26.0587 42.5709 24.648C43.8283 23.2373 45.0703 22.0413 46.2969 21.06C47.5236 20.0787 48.6276 19.588 49.6089 19.588C49.9769 19.588 50.3756 19.6493 50.8049 19.772C51.2343 19.8947 51.6329 20.048 52.0009 20.232C52.3689 20.416 52.6756 20.6 52.9209 20.784C53.1663 20.9373 53.3043 21.06 53.3349 21.152C53.1816 21.7653 52.8136 22.6087 52.2309 23.682C51.6789 24.7247 51.0809 25.8287 50.4369 26.994C49.7929 28.1593 49.1949 29.294 48.6429 30.398C48.0909 31.4713 47.7689 32.33 47.6769 32.974C49.1796 30.9193 50.5903 29.064 51.9089 27.408C53.2276 25.7213 54.4696 24.28 55.6349 23.084C56.8003 21.888 57.8736 20.968 58.8549 20.324C59.8669 19.68 60.8176 19.358 61.7069 19.358C62.3203 19.358 62.8876 19.5267 63.4089 19.864C63.9609 20.1707 64.3443 20.6307 64.5589 21.244C64.2829 22.164 63.8229 23.268 63.1789 24.556C62.5656 25.844 61.9369 27.2087 61.2929 28.65C60.6489 30.0607 60.0663 31.456 59.5449 32.836C59.0543 34.216 58.8089 35.458 58.8089 36.562C58.8089 37.206 58.9009 37.6353 59.0849 37.85C59.2689 38.034 59.5296 38.126 59.8669 38.126C60.2349 38.126 60.5723 38.0647 60.8789 37.942C61.2163 37.7887 61.4616 37.712 61.6149 37.712C61.7989 37.8347 61.9063 37.988 61.9369 38.172C61.9676 38.356 61.9829 38.5247 61.9829 38.678C61.3696 39.1687 60.7409 39.5673 60.0969 39.874C59.4529 40.2113 58.7323 40.38 57.9349 40.38C57.1989 40.38 56.5856 40.2573 56.0949 40.012C55.6349 39.7667 55.2516 39.4293 54.9449 39C54.6383 38.5707 54.4236 38.08 54.3009 37.528C54.1783 36.976 54.1169 36.378 54.1169 35.734C54.1169 34.6913 54.2549 33.664 54.5309 32.652C54.8069 31.6093 55.1289 30.628 55.4969 29.708C55.8956 28.7573 56.3096 27.8833 56.7389 27.086C57.1683 26.258 57.5363 25.522 57.8429 24.878Z" fill="#111111"/>
  <path d="M82.2988 20.416C82.6054 20.416 82.9581 20.4773 83.3568 20.6C83.7861 20.692 84.1694 20.83 84.5068 21.014C84.8441 21.1673 85.1201 21.336 85.3348 21.52C85.5801 21.704 85.7028 21.8727 85.7028 22.026C85.0894 23.314 84.5221 24.6173 84.0008 25.936C83.4794 27.224 83.0348 28.466 82.6668 29.662C82.2988 30.858 82.0074 31.9773 81.7928 33.02C81.6088 34.0627 81.5168 34.9673 81.5168 35.734C81.5168 36.5927 81.6088 37.3133 81.7928 37.896C81.9768 38.448 82.2834 38.8467 82.7128 39.092C82.3448 39.3373 81.8694 39.5367 81.2868 39.69C80.7041 39.8433 80.1828 39.92 79.7228 39.92C78.0668 39.92 77.2388 38.7853 77.2388 36.516C77.2388 34.768 77.8214 32.376 78.9868 29.34C78.3734 30.7507 77.6681 32.0847 76.8708 33.342C76.0734 34.5687 75.2608 35.6573 74.4328 36.608C73.6048 37.5587 72.7614 38.3407 71.9028 38.954C71.0748 39.5367 70.3081 39.8893 69.6028 40.012C68.4681 39.9507 67.5481 39.414 66.8428 38.402C66.1374 37.3593 65.7848 36.0407 65.7848 34.446C65.7848 32.7287 66.1528 30.9193 66.8888 29.018C67.6248 27.1167 68.5601 25.3533 69.6948 23.728C70.8601 22.1027 72.1174 20.7533 73.4668 19.68C74.8161 18.576 76.1194 17.9933 77.3768 17.932C77.6834 18.024 78.0208 18.208 78.3888 18.484C78.7874 18.76 79.1554 19.082 79.4928 19.45C79.8608 19.818 80.1674 20.2013 80.4128 20.6C80.6581 20.968 80.7961 21.29 80.8268 21.566C79.6001 21.75 78.3274 22.348 77.0088 23.36C75.7208 24.372 74.5401 25.5987 73.4668 27.04C72.4241 28.4507 71.5654 29.9687 70.8908 31.594C70.2161 33.2193 69.8788 34.7373 69.8788 36.148C69.8788 36.7307 70.0934 37.0987 70.5228 37.252C71.4121 37.068 72.4394 36.3167 73.6048 34.998C74.7701 33.6487 76.1808 31.5787 77.8368 28.788C78.1434 28.236 78.4808 27.6227 78.8488 26.948C79.2474 26.2733 79.6461 25.568 80.0448 24.832C80.4434 24.096 80.8268 23.36 81.1948 22.624C81.5934 21.8573 81.9614 21.1213 82.2988 20.416Z" fill="#111111"/>
  <path d="M86.9322 38.08C87.0855 37.1907 87.3462 36.0253 87.7142 34.584C88.1128 33.112 88.5728 31.5633 89.0942 29.938C89.6155 28.282 90.1675 26.626 90.7502 24.97C91.3329 23.314 91.9002 21.8267 92.4522 20.508C92.8508 19.5573 93.2035 18.8213 93.5102 18.3C93.8168 17.748 94.1542 17.288 94.5222 16.92C94.9515 16.9813 95.3962 17.0887 95.8562 17.242C96.3162 17.3953 96.7608 17.5793 97.1902 17.794C97.6195 18.0087 98.0028 18.2387 98.3402 18.484C98.6775 18.6987 98.9382 18.9133 99.1222 19.128C98.2942 20.1093 97.5582 21.2287 96.9142 22.486C96.3009 23.7433 95.6722 25.3533 95.0282 27.316C96.6842 25.844 98.1408 24.4333 99.3982 23.084C100.686 21.7347 101.882 20.232 102.986 18.576C103.17 18.4227 103.492 18.346 103.952 18.346C104.382 18.346 104.796 18.4227 105.194 18.576C105.593 18.6987 105.869 18.8827 106.022 19.128C105.47 20.6 105.194 22.0567 105.194 23.498C105.194 24.8473 105.394 25.8593 105.792 26.534C105.762 26.718 105.547 27.0707 105.148 27.592C104.78 28.1133 104.366 28.604 103.906 29.064C103.078 28.6347 102.342 28.052 101.698 27.316C101.054 26.5493 100.579 25.7213 100.272 24.832C98.8308 25.844 97.6042 26.8407 96.5922 27.822C95.5802 28.7727 94.7062 29.846 93.9702 31.042C93.2649 32.2073 92.6515 33.5567 92.1302 35.09C91.6395 36.6233 91.1642 38.448 90.7042 40.564C90.4282 40.5333 90.0909 40.426 89.6922 40.242C89.3242 40.0887 88.9408 39.8893 88.5422 39.644C88.1742 39.3987 87.8368 39.138 87.5302 38.862C87.2235 38.586 87.0242 38.3253 86.9322 38.08Z" fill="#111111"/>
  <path d="M136.732 19.404C137.744 19.404 138.526 19.68 139.078 20.232C139.661 20.784 139.952 21.5507 139.952 22.532C139.952 22.7773 139.921 23.038 139.86 23.314C139.829 23.5593 139.783 23.774 139.722 23.958C139.323 23.8967 138.879 23.8507 138.388 23.82C137.897 23.7587 137.315 23.728 136.64 23.728C135.321 23.728 133.987 23.8507 132.638 24.096C131.289 24.3107 130.001 24.4947 128.774 24.648C128.069 26.2733 127.425 27.8527 126.842 29.386C126.259 30.8887 125.753 32.2687 125.324 33.526C124.925 34.7833 124.603 35.872 124.358 36.792C124.143 37.712 124.021 38.402 123.99 38.862C126.474 38.3407 128.973 37.896 131.488 37.528C134.033 37.16 136.701 36.884 139.492 36.7C139.829 37.2213 140.105 37.7887 140.32 38.402C140.565 39.0153 140.688 39.6747 140.688 40.38C140.688 40.564 140.688 40.7633 140.688 40.978C140.688 41.1927 140.657 41.4073 140.596 41.622C139.737 41.5913 138.833 41.5607 137.882 41.53C136.931 41.53 135.689 41.53 134.156 41.53C133.144 41.53 132.178 41.5453 131.258 41.576C130.369 41.6373 129.464 41.714 128.544 41.806C127.624 41.898 126.643 42.0207 125.6 42.174C124.588 42.3273 123.438 42.5113 122.15 42.726C120.739 42.174 119.375 40.8247 118.056 38.678C118.577 37.574 119.298 35.9027 120.218 33.664C121.169 31.3947 122.365 28.374 123.806 24.602C122.426 24.1727 121.521 23.406 121.092 22.302C121.245 22.1487 121.69 21.9647 122.426 21.75C123.162 21.5047 124.067 21.2593 125.14 21.014C125.6 19.818 125.983 18.7753 126.29 17.886C126.627 16.9967 126.919 16.1687 127.164 15.402C127.409 14.6047 127.624 13.838 127.808 13.102C128.023 12.3353 128.222 11.5073 128.406 10.618C127.333 10.5567 126.489 10.2653 125.876 9.74401C125.263 9.19201 124.956 8.48667 124.956 7.62801C124.956 7.38267 124.987 7.09134 125.048 6.75401C125.14 6.41667 125.232 6.12534 125.324 5.88001C125.937 5.97201 126.52 6.03334 127.072 6.06401C127.655 6.09467 128.406 6.11001 129.326 6.11001C131.258 6.11001 133.067 6.06401 134.754 5.97201C136.441 5.84934 137.959 5.72667 139.308 5.60401C140.688 5.48134 141.869 5.37401 142.85 5.28201C143.831 5.15934 144.583 5.09801 145.104 5.09801C145.809 5.09801 146.438 5.46601 146.99 6.20201C147.542 6.93801 147.956 7.98068 148.232 9.33001C147.281 9.23801 146.499 9.17668 145.886 9.14601C145.303 9.11534 144.782 9.10001 144.322 9.10001C142.635 9.10001 141.087 9.19201 139.676 9.37601C138.296 9.52934 136.962 9.69801 135.674 9.88201C135.49 10.158 135.275 10.5107 135.03 10.94C134.815 11.3693 134.524 11.9673 134.156 12.734C133.788 13.5007 133.328 14.4667 132.776 15.632C132.255 16.7973 131.611 18.254 130.844 20.002C132.009 19.818 133.098 19.68 134.11 19.588C135.153 19.4653 136.027 19.404 136.732 19.404Z" fill="#111111"/>
  <path d="M144.906 36.056C144.906 34.7067 145.228 32.8207 145.872 30.398C146.516 27.9447 147.421 25.0927 148.586 21.842C150.488 16.6593 152.266 12.3507 153.922 8.91601C155.609 5.45068 157.25 2.75201 158.844 0.820007C159.212 0.88134 159.657 1.03467 160.178 1.28001C160.73 1.52534 161.267 1.80134 161.788 2.10801C162.31 2.38401 162.77 2.67534 163.168 2.98201C163.598 3.28867 163.874 3.53401 163.996 3.71801C161.604 6.53934 159.504 9.57534 157.694 12.826C155.885 16.0767 154.229 19.8027 152.726 24.004C151.438 27.6227 150.457 30.8887 149.782 33.802C149.108 36.6847 148.77 39.092 148.77 41.024C148.77 41.5453 148.77 41.8673 148.77 41.99C148.77 42.1127 148.786 42.2353 148.816 42.358C148.387 42.2967 148.019 42.1893 147.712 42.036C147.406 41.8827 147.206 41.6987 147.114 41.484C147.053 41.3307 146.884 41.1007 146.608 40.794C146.332 40.518 146.087 40.3033 145.872 40.15C145.596 39.966 145.366 39.4907 145.182 38.724C144.998 37.9267 144.906 37.0373 144.906 36.056Z" fill="#111111"/>
  <path d="M155.777 38.218C155.777 37.1447 155.885 35.8873 156.099 34.446C156.314 32.974 156.621 31.41 157.019 29.754C157.449 28.098 157.939 26.3653 158.491 24.556C159.074 22.7467 159.718 20.9373 160.423 19.128C161.037 17.5027 161.742 15.862 162.539 14.206C163.367 12.55 164.257 10.9247 165.207 9.33001C166.158 7.73534 167.139 6.21734 168.151 4.77601C169.194 3.33468 170.237 2.01601 171.279 0.820007C171.77 0.820007 172.291 0.881341 172.843 1.00401C173.426 1.12668 173.978 1.29534 174.499 1.51001C175.051 1.69401 175.542 1.92401 175.971 2.20001C176.431 2.47601 176.799 2.75201 177.075 3.02801C174.775 5.38934 172.705 7.78134 170.865 10.204C169.025 12.596 167.569 14.85 166.495 16.966C165.913 18.1313 165.376 19.22 164.885 20.232C164.425 21.244 163.996 22.256 163.597 23.268C163.199 24.2493 162.831 25.246 162.493 26.258C162.187 27.2393 161.895 28.282 161.619 29.386C167.507 21.8727 171.877 18.116 174.729 18.116C175.527 18.116 176.385 18.3767 177.305 18.898C178.225 19.4193 179.038 20.1247 179.743 21.014C178.793 22.0567 177.811 23.314 176.799 24.786C175.787 26.258 174.852 27.7453 173.993 29.248C173.165 30.72 172.475 32.1 171.923 33.388C171.402 34.6453 171.141 35.5807 171.141 36.194C171.141 36.5007 171.187 36.7153 171.279 36.838C171.371 36.93 171.571 36.976 171.877 36.976C172.337 36.976 172.705 36.9147 172.981 36.792C173.257 36.6693 173.426 36.608 173.487 36.608C173.641 36.8533 173.733 37.022 173.763 37.114C173.794 37.206 173.809 37.2827 173.809 37.344C173.809 37.4667 173.625 37.6507 173.257 37.896C172.889 38.1107 172.445 38.3407 171.923 38.586C171.433 38.8007 170.942 39 170.451 39.184C169.961 39.368 169.593 39.46 169.347 39.46C169.041 39.46 168.734 39.368 168.427 39.184C168.121 39.0307 167.845 38.816 167.599 38.54C167.385 38.264 167.201 37.9573 167.047 37.62C166.925 37.2827 166.863 36.93 166.863 36.562C166.863 36.102 166.986 35.4273 167.231 34.538C167.507 33.618 167.875 32.56 168.335 31.364C168.795 30.1373 169.347 28.8033 169.991 27.362C170.635 25.9207 171.325 24.4487 172.061 22.946C172.061 22.8233 172 22.762 171.877 22.762C171.785 22.762 171.54 22.8847 171.141 23.13C170.773 23.3753 170.421 23.6207 170.083 23.866C168.979 24.694 167.86 25.7213 166.725 26.948C165.621 28.144 164.533 29.4627 163.459 30.904C162.417 32.3453 161.42 33.8787 160.469 35.504C159.549 37.0987 158.752 38.7087 158.077 40.334C157.985 40.5487 157.847 40.748 157.663 40.932C157.479 41.116 157.326 41.208 157.203 41.208C157.111 41.208 156.973 41.1007 156.789 40.886C156.636 40.6713 156.483 40.3953 156.329 40.058C156.207 39.7513 156.084 39.4293 155.961 39.092C155.839 38.7547 155.777 38.4633 155.777 38.218Z" fill="#111111"/>
  <path d="M195.457 20.416C195.764 20.416 196.116 20.4773 196.515 20.6C196.944 20.692 197.328 20.83 197.665 21.014C198.002 21.1673 198.278 21.336 198.493 21.52C198.738 21.704 198.861 21.8727 198.861 22.026C198.248 23.314 197.68 24.6173 197.159 25.936C196.638 27.224 196.193 28.466 195.825 29.662C195.457 30.858 195.166 31.9773 194.951 33.02C194.767 34.0627 194.675 34.9673 194.675 35.734C194.675 36.5927 194.767 37.3133 194.951 37.896C195.135 38.448 195.442 38.8467 195.871 39.092C195.503 39.3373 195.028 39.5367 194.445 39.69C193.862 39.8433 193.341 39.92 192.881 39.92C191.225 39.92 190.397 38.7853 190.397 36.516C190.397 34.768 190.98 32.376 192.145 29.34C191.532 30.7507 190.826 32.0847 190.029 33.342C189.232 34.5687 188.419 35.6573 187.591 36.608C186.763 37.5587 185.92 38.3407 185.061 38.954C184.233 39.5367 183.466 39.8893 182.761 40.012C181.626 39.9507 180.706 39.414 180.001 38.402C179.296 37.3593 178.943 36.0407 178.943 34.446C178.943 32.7287 179.311 30.9193 180.047 29.018C180.783 27.1167 181.718 25.3533 182.853 23.728C184.018 22.1027 185.276 20.7533 186.625 19.68C187.974 18.576 189.278 17.9933 190.535 17.932C190.842 18.024 191.179 18.208 191.547 18.484C191.946 18.76 192.314 19.082 192.651 19.45C193.019 19.818 193.326 20.2013 193.571 20.6C193.816 20.968 193.954 21.29 193.985 21.566C192.758 21.75 191.486 22.348 190.167 23.36C188.879 24.372 187.698 25.5987 186.625 27.04C185.582 28.4507 184.724 29.9687 184.049 31.594C183.374 33.2193 183.037 34.7373 183.037 36.148C183.037 36.7307 183.252 37.0987 183.681 37.252C184.57 37.068 185.598 36.3167 186.763 34.998C187.928 33.6487 189.339 31.5787 190.995 28.788C191.302 28.236 191.639 27.6227 192.007 26.948C192.406 26.2733 192.804 25.568 193.203 24.832C193.602 24.096 193.985 23.36 194.353 22.624C194.752 21.8573 195.12 21.1213 195.457 20.416Z" fill="#111111"/>
  <path d="M201.294 37.114C201.294 36.5007 201.355 35.642 201.478 34.538C201.631 33.434 201.815 32.238 202.03 30.95C202.275 29.662 202.536 28.3433 202.812 26.994C203.119 25.6447 203.425 24.4333 203.732 23.36C204.131 21.9187 204.744 20.8147 205.572 20.048C206.431 19.2507 207.489 18.852 208.746 18.852C209.421 18.852 210.08 18.9593 210.724 19.174C211.399 19.3887 211.797 19.6647 211.92 20.002C211.031 20.738 210.31 21.658 209.758 22.762C209.237 23.8353 208.807 25.0007 208.47 26.258C208.163 27.4847 207.918 28.7573 207.734 30.076C207.581 31.364 207.412 32.5753 207.228 33.71C208.24 32.3607 209.191 31.1493 210.08 30.076C211 28.972 211.813 28.098 212.518 27.454C213.469 26.5647 214.113 25.8287 214.45 25.246C214.787 24.6327 215.079 23.9733 215.324 23.268C215.508 22.716 215.723 22.072 215.968 21.336C216.244 20.6 216.689 19.9253 217.302 19.312C217.425 19.2813 217.685 19.266 218.084 19.266C218.391 19.266 218.713 19.2813 219.05 19.312C219.418 19.3427 219.755 19.404 220.062 19.496C220.369 19.588 220.629 19.6953 220.844 19.818C221.059 19.9407 221.181 20.094 221.212 20.278C220.721 20.922 220.261 21.934 219.832 23.314C219.403 24.6633 219.019 26.1507 218.682 27.776C218.345 29.4013 218.038 31.0267 217.762 32.652C217.486 34.2467 217.241 35.596 217.026 36.7C217.149 36.6387 217.425 36.3933 217.854 35.964C218.283 35.5347 218.759 34.998 219.28 34.354C219.832 33.71 220.399 33.0047 220.982 32.238C221.595 31.4713 222.132 30.72 222.592 29.984C223.175 29.0947 223.65 28.2667 224.018 27.5C224.417 26.7027 224.754 25.8593 225.03 24.97C225.337 24.0807 225.613 23.0993 225.858 22.026C226.103 20.922 226.364 19.6187 226.64 18.116C226.824 17.8707 227.223 17.6713 227.836 17.518C228.48 17.334 229.063 17.242 229.584 17.242C230.044 17.242 230.381 17.3187 230.596 17.472C230.443 19.1893 230.151 20.7227 229.722 22.072C229.323 23.4213 228.771 24.74 228.066 26.028C227.361 27.2853 226.487 28.558 225.444 29.846C224.401 31.1033 223.175 32.4833 221.764 33.986C221.181 34.5993 220.537 35.274 219.832 36.01C219.157 36.746 218.483 37.436 217.808 38.08C217.164 38.6933 216.551 39.2147 215.968 39.644C215.416 40.0733 214.987 40.288 214.68 40.288C213.975 40.288 213.392 40.012 212.932 39.46C212.472 38.908 212.242 38.2027 212.242 37.344C212.242 36.4547 212.273 35.688 212.334 35.044C212.426 34.3693 212.564 33.664 212.748 32.928C212.932 32.2533 213.07 31.686 213.162 31.226C213.285 30.766 213.377 30.3673 213.438 30.03C213.53 29.6927 213.591 29.4013 213.622 29.156C213.653 28.9107 213.683 28.6653 213.714 28.42C213.469 28.5427 213.147 28.8033 212.748 29.202C212.349 29.57 211.935 30.0147 211.506 30.536C211.077 31.0267 210.647 31.5327 210.218 32.054C209.789 32.5753 209.436 33.02 209.16 33.388C208.577 34.1853 208.071 34.8907 207.642 35.504C207.213 36.1173 206.799 36.7 206.4 37.252C206.032 37.804 205.664 38.3713 205.296 38.954C204.928 39.506 204.499 40.104 204.008 40.748C203.027 40.4413 202.321 39.9813 201.892 39.368C201.493 38.7547 201.294 38.0033 201.294 37.114Z" fill="#111111"/>
  <path d="M245.949 20.416C246.256 20.416 246.608 20.4773 247.007 20.6C247.436 20.692 247.82 20.83 248.157 21.014C248.494 21.1673 248.77 21.336 248.985 21.52C249.23 21.704 249.353 21.8727 249.353 22.026C248.74 23.314 248.172 24.6173 247.651 25.936C247.13 27.224 246.685 28.466 246.317 29.662C245.949 30.858 245.658 31.9773 245.443 33.02C245.259 34.0627 245.167 34.9673 245.167 35.734C245.167 36.5927 245.259 37.3133 245.443 37.896C245.627 38.448 245.934 38.8467 246.363 39.092C245.995 39.3373 245.52 39.5367 244.937 39.69C244.354 39.8433 243.833 39.92 243.373 39.92C241.717 39.92 240.889 38.7853 240.889 36.516C240.889 34.768 241.472 32.376 242.637 29.34C242.024 30.7507 241.318 32.0847 240.521 33.342C239.724 34.5687 238.911 35.6573 238.083 36.608C237.255 37.5587 236.412 38.3407 235.553 38.954C234.725 39.5367 233.958 39.8893 233.253 40.012C232.118 39.9507 231.198 39.414 230.493 38.402C229.788 37.3593 229.435 36.0407 229.435 34.446C229.435 32.7287 229.803 30.9193 230.539 29.018C231.275 27.1167 232.21 25.3533 233.345 23.728C234.51 22.1027 235.768 20.7533 237.117 19.68C238.466 18.576 239.77 17.9933 241.027 17.932C241.334 18.024 241.671 18.208 242.039 18.484C242.438 18.76 242.806 19.082 243.143 19.45C243.511 19.818 243.818 20.2013 244.063 20.6C244.308 20.968 244.446 21.29 244.477 21.566C243.25 21.75 241.978 22.348 240.659 23.36C239.371 24.372 238.19 25.5987 237.117 27.04C236.074 28.4507 235.216 29.9687 234.541 31.594C233.866 33.2193 233.529 34.7373 233.529 36.148C233.529 36.7307 233.744 37.0987 234.173 37.252C235.062 37.068 236.09 36.3167 237.255 34.998C238.42 33.6487 239.831 31.5787 241.487 28.788C241.794 28.236 242.131 27.6227 242.499 26.948C242.898 26.2733 243.296 25.568 243.695 24.832C244.094 24.096 244.477 23.36 244.845 22.624C245.244 21.8573 245.612 21.1213 245.949 20.416Z" fill="#111111"/>
  <path d="M250.583 38.08C250.736 37.1907 250.997 36.0253 251.365 34.584C251.763 33.112 252.223 31.5633 252.745 29.938C253.266 28.282 253.818 26.626 254.401 24.97C254.983 23.314 255.551 21.8267 256.103 20.508C256.501 19.5573 256.854 18.8213 257.161 18.3C257.467 17.748 257.805 17.288 258.173 16.92C258.602 16.9813 259.047 17.0887 259.507 17.242C259.967 17.3953 260.411 17.5793 260.841 17.794C261.27 18.0087 261.653 18.2387 261.991 18.484C262.328 18.6987 262.589 18.9133 262.773 19.128C261.945 20.1093 261.209 21.2287 260.565 22.486C259.951 23.7433 259.323 25.3533 258.679 27.316C260.335 25.844 261.791 24.4333 263.049 23.084C264.337 21.7347 265.533 20.232 266.637 18.576C266.821 18.4227 267.143 18.346 267.603 18.346C268.032 18.346 268.446 18.4227 268.845 18.576C269.243 18.6987 269.519 18.8827 269.673 19.128C269.121 20.6 268.845 22.0567 268.845 23.498C268.845 24.8473 269.044 25.8593 269.443 26.534C269.412 26.718 269.197 27.0707 268.799 27.592C268.431 28.1133 268.017 28.604 267.557 29.064C266.729 28.6347 265.993 28.052 265.349 27.316C264.705 26.5493 264.229 25.7213 263.923 24.832C262.481 25.844 261.255 26.8407 260.243 27.822C259.231 28.7727 258.357 29.846 257.621 31.042C256.915 32.2073 256.302 33.5567 255.781 35.09C255.29 36.6233 254.815 38.448 254.355 40.564C254.079 40.5333 253.741 40.426 253.343 40.242C252.975 40.0887 252.591 39.8893 252.193 39.644C251.825 39.3987 251.487 39.138 251.181 38.862C250.874 38.586 250.675 38.3253 250.583 38.08Z" fill="#111111"/>
  <path d="M287.535 31.87C286.83 34.1087 286.125 36.148 285.419 37.988C284.714 39.828 283.963 41.5147 283.165 43.048C282.368 44.612 281.509 46.038 280.589 47.326C279.669 48.6447 278.657 49.8867 277.553 51.052C276.143 52.524 274.686 53.6433 273.183 54.41C271.681 55.2073 270.178 55.606 268.675 55.606C267.909 55.606 267.142 55.514 266.375 55.33C265.639 55.1767 264.949 54.9467 264.305 54.64C263.631 54.364 263.048 54.0267 262.557 53.628C262.036 53.26 261.668 52.8613 261.453 52.432C261.453 52.064 261.668 51.742 262.097 51.466C262.465 51.8033 262.772 52.064 263.017 52.248C263.263 52.432 263.508 52.5853 263.753 52.708C263.968 52.8307 264.213 52.9073 264.489 52.938C264.735 52.9687 265.026 52.984 265.363 52.984C267.111 52.984 268.813 52.4627 270.469 51.42C272.156 50.408 273.735 48.9513 275.207 47.05C276.71 45.1793 278.075 42.8947 279.301 40.196C280.528 37.528 281.571 34.538 282.429 31.226C282.031 31.8393 281.54 32.5907 280.957 33.48C280.375 34.3693 279.731 35.2587 279.025 36.148C278.32 37.0067 277.584 37.7887 276.817 38.494C276.081 39.1993 275.361 39.6747 274.655 39.92C274.165 39.8893 273.643 39.782 273.091 39.598C272.57 39.4447 272.064 39.2147 271.573 38.908C271.113 38.6013 270.699 38.2333 270.331 37.804C269.963 37.3747 269.718 36.884 269.595 36.332C269.595 35.4427 269.626 34.7373 269.687 34.216C269.749 33.664 269.856 33.066 270.009 32.422C270.285 31.2567 270.684 29.938 271.205 28.466C271.757 26.994 272.386 25.5527 273.091 24.142C273.827 22.7007 274.625 21.3667 275.483 20.14C276.373 18.8827 277.293 17.9013 278.243 17.196C278.489 17.196 278.795 17.2267 279.163 17.288C279.531 17.3187 279.915 17.3953 280.313 17.518C280.712 17.6407 281.095 17.794 281.463 17.978C281.831 18.1313 282.153 18.346 282.429 18.622C282.092 18.9287 281.356 19.956 280.221 21.704C279.087 23.452 277.829 25.9667 276.449 29.248C276.296 29.5853 276.112 30.076 275.897 30.72C275.683 31.364 275.468 32.0387 275.253 32.744C275.069 33.4493 274.901 34.1393 274.747 34.814C274.594 35.4887 274.517 36.0253 274.517 36.424C274.517 36.6693 274.548 36.8533 274.609 36.976C274.701 37.0987 274.778 37.1907 274.839 37.252C275.391 37.16 276.127 36.7153 277.047 35.918C277.967 35.09 279.01 33.8173 280.175 32.1C280.911 30.996 281.586 29.9073 282.199 28.834C282.813 27.73 283.411 26.626 283.993 25.522C284.607 24.418 285.235 23.2833 285.879 22.118C286.523 20.9527 287.213 19.7567 287.949 18.53C288.348 18.53 288.777 18.576 289.237 18.668C289.697 18.76 290.142 18.8827 290.571 19.036C291.001 19.1587 291.369 19.312 291.675 19.496C292.013 19.6493 292.258 19.818 292.411 20.002C291.461 22.026 290.571 24.004 289.743 25.936C288.915 27.868 288.179 29.846 287.535 31.87Z" fill="#111111"/>
</svg>
