<svg width="24" height="24" viewBox="0 0 24 24" fill="none" xmlns="http://www.w3.org/2000/svg">
  <path d="M19.4348 3H4.56522C4.15024 3.00047 3.75239 3.16552 3.45896 3.45896C3.16552 3.75239 3.00047 4.15024 3 4.56522V19.4348C3.00047 19.8498 3.16552 20.2476 3.45896 20.541C3.75239 20.8345 4.15024 20.9995 4.56522 21H19.4348C19.8498 20.9995 20.2476 20.8345 20.541 20.541C20.8345 20.2476 20.9995 19.8498 21 19.4348V4.56522C20.9995 4.15024 20.8345 3.75239 20.541 3.45896C20.2476 3.16552 19.8498 3.00047 19.4348 3ZM4.56522 4.56522H12V19.4348H4.56522V4.56522Z" fill="#111111"/>
</svg>
