<svg width="151" height="65" viewBox="0 0 151 65" fill="none" xmlns="http://www.w3.org/2000/svg">
<path d="M70.2764 59H77.8724C85.7204 59 90.7604 54.536 90.7604 45.572C90.7604 36.572 85.7204 32.36 77.5844 32.36H70.2764V59ZM75.6044 54.716V36.608H77.2604C82.2284 36.608 85.3244 39.056 85.3244 45.572C85.3244 52.052 82.2284 54.716 77.2604 54.716H75.6044Z" fill="#323330"/>
<path d="M103.968 59.504C109.008 59.504 113.652 55.616 113.652 48.956C113.652 42.224 109.008 38.336 103.968 38.336C98.9276 38.336 94.2836 42.224 94.2836 48.956C94.2836 55.616 98.9276 59.504 103.968 59.504ZM103.968 55.184C101.232 55.184 99.6836 52.736 99.6836 48.956C99.6836 45.14 101.232 42.656 103.968 42.656C106.704 42.656 108.252 45.14 108.252 48.956C108.252 52.736 106.704 55.184 103.968 55.184Z" fill="#323330"/>
<path d="M126.647 59.504C128.879 59.504 131.327 58.748 133.235 57.056L131.147 53.564C130.031 54.5 128.663 55.184 127.223 55.184C124.307 55.184 122.219 52.736 122.219 48.956C122.219 45.14 124.307 42.656 127.367 42.656C128.519 42.656 129.455 43.124 130.463 43.988L132.983 40.568C131.507 39.308 129.599 38.336 127.115 38.336C121.643 38.336 116.819 42.224 116.819 48.956C116.819 55.616 121.067 59.504 126.647 59.504Z" fill="#323330"/>
<path d="M142.823 59.504C148.079 59.504 150.851 56.66 150.851 53.132C150.851 49.388 147.899 48.056 145.235 47.048C143.111 46.256 141.131 45.716 141.131 44.24C141.131 43.088 141.995 42.296 143.795 42.296C145.307 42.296 146.711 43.016 148.151 44.024L150.527 40.82C148.835 39.56 146.603 38.336 143.651 38.336C139.115 38.336 136.163 40.892 136.163 44.528C136.163 47.876 139.115 49.424 141.671 50.396C143.795 51.224 145.883 51.908 145.883 53.42C145.883 54.68 144.983 55.544 142.967 55.544C141.095 55.544 139.367 54.752 137.567 53.348L135.155 56.66C137.135 58.316 140.123 59.504 142.823 59.504Z" fill="#323330"/>
<path d="M0 0H65V65H0V0Z" fill="#F0DB4F"/>
<path d="M25.5759 59.532C31.6179 59.532 34.2779 55.2 34.2779 49.918V30.88H28.6539V49.462C28.6539 53.338 27.3619 54.668 24.8919 54.668C23.2959 54.668 21.8139 53.794 20.7119 51.742L16.8359 54.592C18.7359 57.86 21.4719 59.532 25.5759 59.532Z" fill="#323330"/>
<path d="M49.4536 59.532C55.9516 59.532 59.7896 55.618 59.7896 51.02C59.7896 46.954 57.5476 44.788 54.1276 43.382L50.4416 41.824C48.0476 40.874 46.0336 40.152 46.0336 38.138C46.0336 36.276 47.6296 35.174 50.0996 35.174C52.4176 35.174 54.2796 36.01 56.0656 37.492L58.9156 33.958C56.6356 31.64 53.3676 30.348 50.0996 30.348C44.3996 30.348 40.3716 33.882 40.3716 38.48C40.3716 42.584 43.2216 44.864 46.0716 46.042L49.8336 47.638C52.3416 48.702 54.0516 49.348 54.0516 51.438C54.0516 53.414 52.4936 54.668 49.5676 54.668C47.0976 54.668 44.4376 53.414 42.4236 51.552L39.1936 55.428C41.9296 58.05 45.6916 59.532 49.4536 59.532Z" fill="#323330"/>
</svg>
