<svg width="24" height="13" viewBox="0 0 24 13" fill="none" xmlns="http://www.w3.org/2000/svg">
<path d="M17.532 9.71222C16.98 9.71222 16.524 9.28538 16.524 8.75472C16.524 8.22406 16.98 7.80876 17.532 7.80876C18.084 7.80876 18.54 8.22406 18.54 8.75472C18.54 9.28538 18.084 9.71222 17.532 9.71222ZM6.492 9.71222C5.94 9.71222 5.484 9.28538 5.484 8.75472C5.484 8.22406 5.94 7.80876 6.492 7.80876C7.044 7.80876 7.488 8.22406 7.488 8.75472C7.488 9.28538 7.044 9.71222 6.492 9.71222ZM17.892 3.93264L19.896 0.610251C20.004 0.414138 19.932 0.17188 19.74 0.0680551C19.536 -0.0473057 19.284 0.0219109 19.2 0.218024L17.148 3.57502C15.533 2.86467 13.776 2.50243 12 2.5137C10.164 2.5137 8.4 2.89439 6.876 3.56349L4.848 0.206488C4.82254 0.159775 4.78738 0.118584 4.74469 0.0854647C4.702 0.0523451 4.6527 0.0280026 4.59982 0.0139439C4.54695 -0.000114656 4.49164 -0.00359009 4.43732 0.0037333C4.38299 0.0110567 4.33081 0.029023 4.284 0.0565193C4.08 0.160344 4.02 0.402601 4.128 0.598715L6.12 3.92111C2.7 5.72073 0.348 9.05466 0 13H24C23.664 9.0662 21.324 5.73227 17.892 3.93264Z" fill="#87DFB5"/>
</svg>
