<svg width="138" height="72" viewBox="0 0 138 72" fill="none" xmlns="http://www.w3.org/2000/svg">
<path d="M1.98801 45.8H13.436C16.172 45.8 18.584 46.328 20.672 47.384C22.784 48.416 24.416 49.88 25.568 51.776C26.744 53.672 27.332 55.88 27.332 58.4C27.332 60.92 26.744 63.128 25.568 65.024C24.416 66.92 22.784 68.396 20.672 69.452C18.584 70.484 16.172 71 13.436 71H1.98801V45.8ZM13.148 66.212C15.668 66.212 17.672 65.516 19.16 64.124C20.672 62.708 21.428 60.8 21.428 58.4C21.428 56 20.672 54.104 19.16 52.712C17.672 51.296 15.668 50.588 13.148 50.588H7.82001V66.212H13.148Z" fill="#638BBF"/>
<path d="M50.3062 61.388C50.3062 61.46 50.2702 61.964 50.1982 62.9H35.5462C35.8102 64.1 36.4342 65.048 37.4182 65.744C38.4022 66.44 39.6262 66.788 41.0902 66.788C42.0982 66.788 42.9862 66.644 43.7542 66.356C44.5462 66.044 45.2782 65.564 45.9502 64.916L48.9382 68.156C47.1142 70.244 44.4502 71.288 40.9462 71.288C38.7622 71.288 36.8302 70.868 35.1502 70.028C33.4702 69.164 32.1742 67.976 31.2622 66.464C30.3502 64.952 29.8942 63.236 29.8942 61.316C29.8942 59.42 30.3382 57.716 31.2262 56.204C32.1382 54.668 33.3742 53.48 34.9342 52.64C36.5182 51.776 38.2822 51.344 40.2262 51.344C42.1222 51.344 43.8382 51.752 45.3742 52.568C46.9102 53.384 48.1102 54.56 48.9742 56.096C49.8622 57.608 50.3062 59.372 50.3062 61.388ZM40.2622 55.592C38.9902 55.592 37.9222 55.952 37.0582 56.672C36.1942 57.392 35.6662 58.376 35.4742 59.624H45.0142C44.8222 58.4 44.2942 57.428 43.4302 56.708C42.5662 55.964 41.5102 55.592 40.2622 55.592Z" fill="#638BBF"/>
<path d="M65.8171 51.344C68.2171 51.344 70.1491 52.064 71.6131 53.504C73.1011 54.944 73.8451 57.08 73.8451 59.912V71H68.2291V60.776C68.2291 59.24 67.8931 58.1 67.2211 57.356C66.5491 56.588 65.5771 56.204 64.3051 56.204C62.8891 56.204 61.7611 56.648 60.9211 57.536C60.0811 58.4 59.6611 59.696 59.6611 61.424V71H54.0451V51.632H59.4091V53.9C60.1531 53.084 61.0771 52.46 62.1811 52.028C63.2851 51.572 64.4971 51.344 65.8171 51.344Z" fill="#638BBF"/>
<path d="M91.4278 70.064C90.8758 70.472 90.1918 70.784 89.3758 71C88.5838 71.192 87.7438 71.288 86.8558 71.288C84.5518 71.288 82.7638 70.7 81.4918 69.524C80.2438 68.348 79.6198 66.62 79.6198 64.34V56.384H76.6318V52.064H79.6198V47.348H85.2358V52.064H90.0598V56.384H85.2358V64.268C85.2358 65.084 85.4398 65.72 85.8478 66.176C86.2798 66.608 86.8798 66.824 87.6478 66.824C88.5358 66.824 89.2918 66.584 89.9158 66.104L91.4278 70.064Z" fill="#638BBF"/>
<path d="M94.5803 51.632H100.196V71H94.5803V51.632ZM97.3883 48.932C96.3563 48.932 95.5163 48.632 94.8683 48.032C94.2203 47.432 93.8963 46.688 93.8963 45.8C93.8963 44.912 94.2203 44.168 94.8683 43.568C95.5163 42.968 96.3563 42.668 97.3883 42.668C98.4203 42.668 99.2603 42.956 99.9083 43.532C100.556 44.108 100.88 44.828 100.88 45.692C100.88 46.628 100.556 47.408 99.9083 48.032C99.2603 48.632 98.4203 48.932 97.3883 48.932Z" fill="#638BBF"/>
<path d="M111.924 71.288C110.316 71.288 108.744 71.096 107.208 70.712C105.672 70.304 104.448 69.8 103.536 69.2L105.408 65.168C106.272 65.72 107.316 66.176 108.54 66.536C109.764 66.872 110.964 67.04 112.14 67.04C114.516 67.04 115.704 66.452 115.704 65.276C115.704 64.724 115.38 64.328 114.732 64.088C114.084 63.848 113.088 63.644 111.744 63.476C110.16 63.236 108.852 62.96 107.82 62.648C106.788 62.336 105.888 61.784 105.12 60.992C104.376 60.2 104.004 59.072 104.004 57.608C104.004 56.384 104.352 55.304 105.048 54.368C105.768 53.408 106.8 52.664 108.144 52.136C109.512 51.608 111.12 51.344 112.968 51.344C114.336 51.344 115.692 51.5 117.036 51.812C118.404 52.1 119.532 52.508 120.42 53.036L118.548 57.032C116.844 56.072 114.984 55.592 112.968 55.592C111.768 55.592 110.868 55.76 110.268 56.096C109.668 56.432 109.368 56.864 109.368 57.392C109.368 57.992 109.692 58.412 110.34 58.652C110.988 58.892 112.02 59.12 113.436 59.336C115.02 59.6 116.316 59.888 117.324 60.2C118.332 60.488 119.208 61.028 119.952 61.82C120.696 62.612 121.068 63.716 121.068 65.132C121.068 66.332 120.708 67.4 119.988 68.336C119.268 69.272 118.212 70.004 116.82 70.532C115.452 71.036 113.82 71.288 111.924 71.288Z" fill="#638BBF"/>
<path d="M137.025 70.064C136.473 70.472 135.789 70.784 134.973 71C134.181 71.192 133.341 71.288 132.453 71.288C130.149 71.288 128.361 70.7 127.089 69.524C125.841 68.348 125.217 66.62 125.217 64.34V56.384H122.229V52.064H125.217V47.348H130.833V52.064H135.657V56.384H130.833V64.268C130.833 65.084 131.037 65.72 131.445 66.176C131.877 66.608 132.477 66.824 133.245 66.824C134.133 66.824 134.889 66.584 135.513 66.104L137.025 70.064Z" fill="#638BBF"/>
<path d="M10.052 27.216C8.17999 27.216 6.37999 26.916 4.65199 26.316C2.94799 25.716 1.62799 24.924 0.691986 23.94L1.73599 21.888C2.64799 22.8 3.85999 23.544 5.37199 24.12C6.88399 24.672 8.44399 24.948 10.052 24.948C12.308 24.948 14 24.54 15.128 23.724C16.256 22.884 16.82 21.804 16.82 20.484C16.82 19.476 16.508 18.672 15.884 18.072C15.284 17.472 14.54 17.016 13.652 16.704C12.764 16.368 11.528 16.008 9.94399 15.624C8.04799 15.144 6.53599 14.688 5.40799 14.256C4.27999 13.8 3.30799 13.116 2.49199 12.204C1.69999 11.292 1.30399 10.056 1.30399 8.49603C1.30399 7.22403 1.63999 6.07203 2.31199 5.04003C2.98399 3.98403 4.01599 3.14403 5.40799 2.52003C6.79999 1.89603 8.52799 1.58403 10.592 1.58403C12.032 1.58403 13.436 1.78803 14.804 2.19603C16.196 2.58003 17.396 3.12003 18.404 3.81602L17.504 5.94003C16.448 5.24403 15.32 4.72803 14.12 4.39203C12.92 4.03203 11.744 3.85203 10.592 3.85203C8.38399 3.85203 6.71599 4.28403 5.58799 5.14802C4.48399 5.98803 3.93199 7.08003 3.93199 8.42403C3.93199 9.43203 4.23199 10.248 4.83199 10.872C5.45599 11.472 6.22399 11.94 7.13599 12.276C8.07199 12.588 9.31999 12.936 10.88 13.32C12.728 13.776 14.216 14.232 15.344 14.688C16.496 15.12 17.468 15.792 18.26 16.704C19.052 17.592 19.448 18.804 19.448 20.34C19.448 21.612 19.1 22.776 18.404 23.832C17.732 24.864 16.688 25.692 15.272 26.316C13.856 26.916 12.116 27.216 10.052 27.216Z" fill="#2E2E2E"/>
<path d="M24.7124 8.06403H27.2684V27H24.7124V8.06403ZM26.0084 3.92403C25.4804 3.92403 25.0364 3.74403 24.6764 3.38403C24.3164 3.02403 24.1364 2.59203 24.1364 2.08803C24.1364 1.60803 24.3164 1.18803 24.6764 0.828025C25.0364 0.468025 25.4804 0.288025 26.0084 0.288025C26.5364 0.288025 26.9804 0.468025 27.3404 0.828025C27.7004 1.16402 27.8804 1.57202 27.8804 2.05203C27.8804 2.58003 27.7004 3.02403 27.3404 3.38403C26.9804 3.74403 26.5364 3.92403 26.0084 3.92403Z" fill="#2E2E2E"/>
<path d="M44.0284 7.92003C46.4044 7.92003 48.2884 8.61603 49.6804 10.008C51.0964 11.376 51.8044 13.38 51.8044 16.02V27H49.2484V16.272C49.2484 14.304 48.7564 12.804 47.7724 11.772C46.7884 10.74 45.3844 10.224 43.5604 10.224C41.5204 10.224 39.9004 10.836 38.7004 12.06C37.5244 13.26 36.9364 14.928 36.9364 17.064V27H34.3804V8.06403H36.8284V11.556C37.5244 10.404 38.4844 9.51602 39.7084 8.89202C40.9564 8.24402 42.3964 7.92003 44.0284 7.92003Z" fill="#2E2E2E"/>
<path d="M76.346 8.06403V24.696C76.346 27.912 75.554 30.288 73.97 31.824C72.41 33.384 70.046 34.164 66.878 34.164C65.126 34.164 63.458 33.9 61.874 33.372C60.314 32.868 59.042 32.16 58.058 31.248L59.354 29.304C60.266 30.12 61.37 30.756 62.666 31.212C63.986 31.668 65.366 31.896 66.806 31.896C69.206 31.896 70.97 31.332 72.098 30.204C73.226 29.1 73.79 27.372 73.79 25.02V22.608C72.998 23.808 71.954 24.72 70.658 25.344C69.386 25.968 67.97 26.28 66.41 26.28C64.634 26.28 63.014 25.896 61.55 25.128C60.11 24.336 58.97 23.244 58.13 21.852C57.314 20.436 56.906 18.84 56.906 17.064C56.906 15.288 57.314 13.704 58.13 12.312C58.97 10.92 60.11 9.84003 61.55 9.07203C62.99 8.30403 64.61 7.92003 66.41 7.92003C68.018 7.92003 69.47 8.24402 70.766 8.89202C72.062 9.54003 73.106 10.476 73.898 11.7V8.06403H76.346ZM66.662 24.012C68.03 24.012 69.266 23.724 70.37 23.148C71.474 22.548 72.326 21.72 72.926 20.664C73.55 19.608 73.862 18.408 73.862 17.064C73.862 15.72 73.55 14.532 72.926 13.5C72.326 12.444 71.474 11.628 70.37 11.052C69.29 10.452 68.054 10.152 66.662 10.152C65.294 10.152 64.058 10.44 62.954 11.016C61.874 11.592 61.022 12.408 60.398 13.464C59.798 14.52 59.498 15.72 59.498 17.064C59.498 18.408 59.798 19.608 60.398 20.664C61.022 21.72 61.874 22.548 62.954 23.148C64.058 23.724 65.294 24.012 66.662 24.012Z" fill="#2E2E2E"/>
<path d="M83.4937 8.06403H86.0497V27H83.4937V8.06403ZM84.7897 3.92403C84.2617 3.92403 83.8177 3.74403 83.4577 3.38403C83.0977 3.02403 82.9177 2.59203 82.9177 2.08803C82.9177 1.60803 83.0977 1.18803 83.4577 0.828025C83.8177 0.468025 84.2617 0.288025 84.7897 0.288025C85.3177 0.288025 85.7617 0.468025 86.1217 0.828025C86.4817 1.16402 86.6617 1.57202 86.6617 2.05203C86.6617 2.58003 86.4817 3.02403 86.1217 3.38403C85.7617 3.74403 85.3177 3.92403 84.7897 3.92403Z" fill="#2E2E2E"/>
<path d="M102.81 7.92003C105.186 7.92003 107.07 8.61603 108.462 10.008C109.878 11.376 110.586 13.38 110.586 16.02V27H108.03V16.272C108.03 14.304 107.538 12.804 106.554 11.772C105.57 10.74 104.166 10.224 102.342 10.224C100.302 10.224 98.6816 10.836 97.4816 12.06C96.3056 13.26 95.7176 14.928 95.7176 17.064V27H93.1616V8.06403H95.6096V11.556C96.3056 10.404 97.2656 9.51602 98.4896 8.89202C99.7376 8.24402 101.178 7.92003 102.81 7.92003Z" fill="#2E2E2E"/>
<path d="M135.127 8.06403V24.696C135.127 27.912 134.335 30.288 132.751 31.824C131.191 33.384 128.827 34.164 125.659 34.164C123.907 34.164 122.239 33.9 120.655 33.372C119.095 32.868 117.823 32.16 116.839 31.248L118.135 29.304C119.047 30.12 120.151 30.756 121.447 31.212C122.767 31.668 124.147 31.896 125.587 31.896C127.987 31.896 129.751 31.332 130.879 30.204C132.007 29.1 132.571 27.372 132.571 25.02V22.608C131.779 23.808 130.735 24.72 129.439 25.344C128.167 25.968 126.751 26.28 125.191 26.28C123.415 26.28 121.795 25.896 120.331 25.128C118.891 24.336 117.751 23.244 116.911 21.852C116.095 20.436 115.687 18.84 115.687 17.064C115.687 15.288 116.095 13.704 116.911 12.312C117.751 10.92 118.891 9.84003 120.331 9.07203C121.771 8.30403 123.391 7.92003 125.191 7.92003C126.799 7.92003 128.251 8.24402 129.547 8.89202C130.843 9.54003 131.887 10.476 132.679 11.7V8.06403H135.127ZM125.443 24.012C126.811 24.012 128.047 23.724 129.151 23.148C130.255 22.548 131.107 21.72 131.707 20.664C132.331 19.608 132.643 18.408 132.643 17.064C132.643 15.72 132.331 14.532 131.707 13.5C131.107 12.444 130.255 11.628 129.151 11.052C128.071 10.452 126.835 10.152 125.443 10.152C124.075 10.152 122.839 10.44 121.735 11.016C120.655 11.592 119.803 12.408 119.179 13.464C118.579 14.52 118.279 15.72 118.279 17.064C118.279 18.408 118.579 19.608 119.179 20.664C119.803 21.72 120.655 22.548 121.735 23.148C122.839 23.724 124.075 24.012 125.443 24.012Z" fill="#2E2E2E"/>
</svg>
